<?xml version="1.0" encoding="UTF-8" standalone="no"?>
<!-- Created with Inkscape (http://www.inkscape.org/) -->

<svg
   xmlns:dc="http://purl.org/dc/elements/1.1/"
   xmlns:cc="http://creativecommons.org/ns#"
   xmlns:rdf="http://www.w3.org/1999/02/22-rdf-syntax-ns#"
   xmlns:svg="http://www.w3.org/2000/svg"
   xmlns="http://www.w3.org/2000/svg"
   xmlns:sodipodi="http://sodipodi.sourceforge.net/DTD/sodipodi-0.dtd"
   xmlns:inkscape="http://www.inkscape.org/namespaces/inkscape"
   id="svg2"
   version="1.1"
   inkscape:version="0.48.5 r10040"
   width="106.194"
   height="60.582375"
   xml:space="preserve"
   sodipodi:docname="IFJ_Startup_Guide_HJ1_2015.pdf"><metadata
     id="metadata8"><rdf:RDF><cc:Work
         rdf:about=""><dc:format>image/svg+xml</dc:format><dc:type
           rdf:resource="http://purl.org/dc/dcmitype/StillImage" /><dc:title></dc:title></cc:Work></rdf:RDF></metadata><defs
     id="defs6"><clipPath
       clipPathUnits="userSpaceOnUse"
       id="clipPath18"><path
         d="m -6.412,71.4176 610.094,0 0,276.393 -610.094,0 0,-276.393 z"
         id="path20"
         inkscape:connector-curvature="0" /></clipPath><clipPath
       clipPathUnits="userSpaceOnUse"
       id="clipPath30"><path
         d="m 501.514,4.0266 89.8009,0 0,46.369 -89.8009,0 0,-46.369 z"
         id="path32"
         inkscape:connector-curvature="0" /></clipPath><clipPath
       clipPathUnits="userSpaceOnUse"
       id="clipPath38"><path
         d="m 497.144,-28.2224 85.1838,0 0,120.4745 -85.1838,0 0,-120.4745 z"
         id="path40"
         inkscape:connector-curvature="0" /></clipPath><clipPath
       clipPathUnits="userSpaceOnUse"
       id="clipPath48"><path
         d="m 515.6362,27.0334 c 0.1372,-0.1267 0.2833,-0.2455 0.4358,-0.3561 0.1036,-0.0751 0.2103,-0.1465 0.319,-0.2142 0.1461,-0.091 0.296,-0.1757 0.4474,-0.254 0.2053,-0.1063 0.5294,-0.254 0.7369,-0.3373 -0.0406,0.0637 -0.0699,0.1079 -0.1177,0.1802 -0.1034,0.118 -0.1998,0.2314 -0.293,0.3889 -0.0733,0.125 -0.1444,0.2772 -0.2146,0.4816 -0.0439,0.1273 -0.0915,0.2701 -0.1359,0.4284 -0.0306,0.1088 -0.0595,0.2248 -0.085,0.349 -0.005,0.0229 -0.0246,0.1124 -0.0297,0.1363 -0.0265,0.1252 -0.0507,0.2441 -0.0776,0.3589 -0.0265,0.1124 -0.0554,0.2215 -0.0921,0.3296 -0.0586,0.1729 -0.123,0.3391 -0.1928,0.4976 -0.0847,0.1923 -0.1773,0.3731 -0.2766,0.5408 -0.065,0.1105 -0.2377,0.3368 -0.3132,0.4349 -0.058,0.0755 -0.1091,0.1336 -0.1643,0.1944 -0.0411,0.0454 -0.0843,0.0923 -0.1341,0.1487 -0.0594,0.0676 -0.1291,0.1305 -0.1873,0.1959 -0.004,0.0047 -0.002,0.002 -0.0112,-0.0076 -0.1279,-0.1622 -0.2434,-0.3281 -0.3396,-0.4994 -0.0792,-0.1411 -0.1451,-0.2856 -0.194,-0.4346 -0.0279,-0.0848 -0.0505,-0.1711 -0.0668,-0.2587 -0.0168,-0.0897 -0.0271,-0.1809 -0.0304,-0.2737 -0.004,-0.115 0.002,-0.2326 0.0209,-0.3529 0.0192,-0.1232 0.0508,-0.2493 0.0966,-0.3788 0.0525,-0.1494 0.1239,-0.3031 0.2162,-0.4617 0.0119,-0.021 0.0244,-0.041 0.0366,-0.0615 0.1748,-0.2853 0.3952,-0.5436 0.6465,-0.7747"
         id="path50"
         inkscape:connector-curvature="0" /></clipPath><clipPath
       clipPathUnits="userSpaceOnUse"
       id="clipPath56"><path
         d="m 8015.0898,8201.2402 20.69,0 0,32.6299 -20.69,0 0,-32.6299 z"
         id="path58"
         inkscape:connector-curvature="0" /></clipPath><clipPath
       clipPathUnits="userSpaceOnUse"
       id="clipPath270"><path
         d="m 515.6362,27.0334 c 0.1372,-0.1267 0.2833,-0.2455 0.4358,-0.3561 0.1036,-0.0751 0.2103,-0.1465 0.319,-0.2142 0.1461,-0.091 0.296,-0.1757 0.4474,-0.254 0.2053,-0.1063 0.5294,-0.254 0.7369,-0.3373 -0.0406,0.0637 -0.0699,0.1079 -0.1177,0.1802 -0.1034,0.118 -0.1998,0.2314 -0.293,0.3889 -0.0733,0.125 -0.1444,0.2772 -0.2146,0.4816 -0.0439,0.1273 -0.0915,0.2701 -0.1359,0.4284 -0.0306,0.1088 -0.0595,0.2248 -0.085,0.349 -0.005,0.0229 -0.0246,0.1124 -0.0297,0.1363 -0.0265,0.1252 -0.0507,0.2441 -0.0776,0.3589 -0.0265,0.1124 -0.0554,0.2215 -0.0921,0.3296 -0.0586,0.1729 -0.123,0.3391 -0.1928,0.4976 -0.0847,0.1923 -0.1773,0.3731 -0.2766,0.5408 -0.065,0.1105 -0.2377,0.3368 -0.3132,0.4349 -0.058,0.0755 -0.1091,0.1336 -0.1643,0.1944 -0.0411,0.0454 -0.0843,0.0923 -0.1341,0.1487 -0.0594,0.0676 -0.1291,0.1305 -0.1873,0.1959 -0.004,0.0047 -0.002,0.002 -0.0112,-0.0076 -0.1279,-0.1622 -0.2434,-0.3281 -0.3396,-0.4994 -0.0792,-0.1411 -0.1451,-0.2856 -0.194,-0.4346 -0.0279,-0.0848 -0.0505,-0.1711 -0.0668,-0.2587 -0.0168,-0.0897 -0.0271,-0.1809 -0.0304,-0.2737 -0.004,-0.115 0.002,-0.2326 0.0209,-0.3529 0.0192,-0.1232 0.0508,-0.2493 0.0966,-0.3788 0.0525,-0.1494 0.1239,-0.3031 0.2162,-0.4617 0.0119,-0.021 0.0244,-0.041 0.0366,-0.0615 0.1748,-0.2853 0.3952,-0.5436 0.6465,-0.7747"
         id="path272"
         inkscape:connector-curvature="0" /></clipPath><clipPath
       clipPathUnits="userSpaceOnUse"
       id="clipPath278"><path
         d="m 517.5753,24.2894 c 0.2808,0.0229 0.5748,0.0617 0.8765,0.1177 0.3725,0.0686 0.7563,0.1625 1.1406,0.2826 0.325,0.1013 0.6497,0.2215 0.9669,0.3607 0.2831,0.1237 0.5603,0.2629 0.8264,0.4172 0.3462,0.2016 0.6744,0.429 0.973,0.6837 0.3433,0.2935 0.6478,0.6218 0.8955,0.987 0.2586,0.3815 0.4555,0.8023 0.572,1.2648 0.0636,0.2509 0.1028,0.514 0.1152,0.7896 0.014,0.309 -0.0188,0.6074 -0.0915,0.8973 -0.0983,0.3884 -0.2688,0.7618 -0.4965,1.1247 -0.2866,0.4573 -0.6641,0.8984 -1.1007,1.332 -0.4415,0.4386 -0.9429,0.8701 -1.4725,1.3039 -0.3256,0.2668 -0.661,0.5348 -0.9999,0.806 -0.2604,0.2083 -0.5227,0.4188 -0.7832,0.6323 -0.2923,0.2393 -0.5825,0.4826 -0.8659,0.7313 -0.2504,0.2255 -0.4904,0.4403 -0.7219,0.6638 -0.0765,0.0739 -0.1524,0.1486 -0.2277,0.2248 -0.2418,0.2445 -0.4795,0.5029 -0.7254,0.7911 0.1406,-0.2042 0.3579,-0.5116 0.5667,-0.8276 0.1465,-0.2218 0.2888,-0.4473 0.392,-0.6489 0.0466,-0.0913 0.0868,-0.182 0.1153,-0.2623 0.0262,-0.0723 0.0435,-0.1357 0.0444,-0.1862 0,-0.1919 2e-4,-0.2651 2e-4,-0.2868 0,-0.1828 8e-4,-0.8438 8e-4,-2.3052 0,-0.4592 10e-5,-1.4272 10e-5,-1.9122 2e-4,-0.6737 2e-4,-1.0156 2e-4,-2.4693 0,-0.7741 -6e-4,-2.1372 -6e-4,-3.0247 0,-0.8063 0,-1.4873 0,-1.4873"
         id="path280"
         inkscape:connector-curvature="0" /></clipPath><clipPath
       clipPathUnits="userSpaceOnUse"
       id="clipPath286"><path
         d="m 8027.96,8151.2202 52.3501,0 0,93.7095 -52.3501,0 0,-93.7095 z"
         id="path288"
         inkscape:connector-curvature="0" /></clipPath><clipPath
       clipPathUnits="userSpaceOnUse"
       id="clipPath782"><path
         d="m 517.5753,24.2894 c 0.2808,0.0229 0.5748,0.0617 0.8765,0.1177 0.3725,0.0686 0.7563,0.1625 1.1406,0.2826 0.325,0.1013 0.6497,0.2215 0.9669,0.3607 0.2831,0.1237 0.5603,0.2629 0.8264,0.4172 0.3462,0.2016 0.6744,0.429 0.973,0.6837 0.3433,0.2935 0.6478,0.6218 0.8955,0.987 0.2586,0.3815 0.4555,0.8023 0.572,1.2648 0.0636,0.2509 0.1028,0.514 0.1152,0.7896 0.014,0.309 -0.0188,0.6074 -0.0915,0.8973 -0.0983,0.3884 -0.2688,0.7618 -0.4965,1.1247 -0.2866,0.4573 -0.6641,0.8984 -1.1007,1.332 -0.4415,0.4386 -0.9429,0.8701 -1.4725,1.3039 -0.3256,0.2668 -0.661,0.5348 -0.9999,0.806 -0.2604,0.2083 -0.5227,0.4188 -0.7832,0.6323 -0.2923,0.2393 -0.5825,0.4826 -0.8659,0.7313 -0.2504,0.2255 -0.4904,0.4403 -0.7219,0.6638 -0.0765,0.0739 -0.1524,0.1486 -0.2277,0.2248 -0.2418,0.2445 -0.4795,0.5029 -0.7254,0.7911 0.1406,-0.2042 0.3579,-0.5116 0.5667,-0.8276 0.1465,-0.2218 0.2888,-0.4473 0.392,-0.6489 0.0466,-0.0913 0.0868,-0.182 0.1153,-0.2623 0.0262,-0.0723 0.0435,-0.1357 0.0444,-0.1862 0,-0.1919 2e-4,-0.2651 2e-4,-0.2868 0,-0.1828 8e-4,-0.8438 8e-4,-2.3052 0,-0.4592 10e-5,-1.4272 10e-5,-1.9122 2e-4,-0.6737 2e-4,-1.0156 2e-4,-2.4693 0,-0.7741 -6e-4,-2.1372 -6e-4,-3.0247 0,-0.8063 0,-1.4873 0,-1.4873"
         id="path784"
         inkscape:connector-curvature="0" /></clipPath><clipPath
       clipPathUnits="userSpaceOnUse"
       id="clipPath790"><path
         d="m 517.5753,25.8718 c 0,0 0.5187,0.6133 0.6663,0.7874 0.0961,0.1136 0.3144,0.3906 0.521,0.6571 0.2005,0.2584 0.3896,0.5064 0.4458,0.5841 0.0266,0.0371 0.3524,0.5017 0.3811,0.5425 0.1593,0.2255 0.0451,0.0675 0.1302,0.1822 0.0353,0.0525 0.0558,0.0688 0.2841,0.4181 0.0255,0.0394 0.0689,0.1065 0.1051,0.1663 0.0209,0.034 0.2118,0.3433 0.2282,0.3695 0.0388,0.0632 0.0729,0.1209 0.1039,0.1751 0.0924,0.1609 0.157,0.2898 0.2298,0.4239 0.1654,0.3038 0.2455,0.449 0.3943,0.77 0.1036,0.2235 0.218,0.4864 0.2919,0.6746 0.0515,0.1319 0.1304,0.3418 0.1711,0.4579 0.0285,0.0811 0.099,0.2925 0.1387,0.4213 0.0756,0.2474 0.113,0.4104 0.1291,0.4779 0.006,0.0252 -0.0358,0.1792 -0.0352,0.1828 -0.1689,0.1467 -0.4043,0.3504 -0.5617,0.4801 -0.0625,0.0516 -0.5309,0.4433 -0.6117,0.5091 -0.303,0.2462 -0.7461,0.6032 -1.0663,0.8615 -0.3298,0.2662 -0.5367,0.4339 -0.8469,0.6893 -1.1227,0.924 -1.6721,1.5451 -2.2678,2.0844 0.294,-0.6721 1.0513,-1.6315 1.0513,-2.2986 0,-0.048 3e-4,-0.7048 3e-4,-0.8844 0,-0.1796 2e-4,-0.9178 2e-4,-1.0988 0,-0.1811 2e-4,-1.0852 2e-4,-1.2479 0,-0.1627 -7e-4,-1.1173 -7e-4,-1.3743 0,-0.1588 -10e-5,-0.7972 -10e-5,-1.0476 0,-0.086 0,-0.3545 0,-0.4027 0,-0.1736 10e-5,-2.7327 10e-5,-3.3806 0,0 0.0414,-0.0607 0.1177,-0.1802"
         id="path792"
         inkscape:connector-curvature="0" /></clipPath><clipPath
       clipPathUnits="userSpaceOnUse"
       id="clipPath798"><path
         d="m 8027.6099,8150.6099 37.7002,0 0,83.2602 -37.7002,0 0,-83.2602 z"
         id="path800"
         inkscape:connector-curvature="0" /></clipPath><clipPath
       clipPathUnits="userSpaceOnUse"
       id="clipPath1214"><path
         d="m 517.5753,25.8718 c 0,0 0.5187,0.6133 0.6663,0.7874 0.0961,0.1136 0.3144,0.3906 0.521,0.6571 0.2005,0.2584 0.3896,0.5064 0.4458,0.5841 0.0266,0.0371 0.3524,0.5017 0.3811,0.5425 0.1593,0.2255 0.0451,0.0675 0.1302,0.1822 0.0353,0.0525 0.0558,0.0688 0.2841,0.4181 0.0255,0.0394 0.0689,0.1065 0.1051,0.1663 0.0209,0.034 0.2118,0.3433 0.2282,0.3695 0.0388,0.0632 0.0729,0.1209 0.1039,0.1751 0.0924,0.1609 0.157,0.2898 0.2298,0.4239 0.1654,0.3038 0.2455,0.449 0.3943,0.77 0.1036,0.2235 0.218,0.4864 0.2919,0.6746 0.0515,0.1319 0.1304,0.3418 0.1711,0.4579 0.0285,0.0811 0.099,0.2925 0.1387,0.4213 0.0756,0.2474 0.113,0.4104 0.1291,0.4779 0.006,0.0252 -0.0358,0.1792 -0.0352,0.1828 -0.1689,0.1467 -0.4043,0.3504 -0.5617,0.4801 -0.0625,0.0516 -0.5309,0.4433 -0.6117,0.5091 -0.303,0.2462 -0.7461,0.6032 -1.0663,0.8615 -0.3298,0.2662 -0.5367,0.4339 -0.8469,0.6893 -1.1227,0.924 -1.6721,1.5451 -2.2678,2.0844 0.294,-0.6721 1.0513,-1.6315 1.0513,-2.2986 0,-0.048 3e-4,-0.7048 3e-4,-0.8844 0,-0.1796 2e-4,-0.9178 2e-4,-1.0988 0,-0.1811 2e-4,-1.0852 2e-4,-1.2479 0,-0.1627 -7e-4,-1.1173 -7e-4,-1.3743 0,-0.1588 -10e-5,-0.7972 -10e-5,-1.0476 0,-0.086 0,-0.3545 0,-0.4027 0,-0.1736 10e-5,-2.7327 10e-5,-3.3806 0,0 0.0414,-0.0607 0.1177,-0.1802"
         id="path1216"
         inkscape:connector-curvature="0" /></clipPath><clipPath
       clipPathUnits="userSpaceOnUse"
       id="clipPath1222"><path
         d="m 518.3145,35.8609 c 0.0542,-0.0461 0.0963,-0.0818 0.2249,-0.1896 0.0517,-0.0435 0.1856,-0.1554 0.2351,-0.197 0.0971,-0.081 0.4444,-0.3635 0.4852,-0.3973 0.0117,-0.0099 0.0358,-0.0295 0.0685,-0.0561 0.1978,-0.16 0.7192,-0.5788 0.8796,-0.7076 0.002,-0.0016 0.009,-0.007 0.0194,-0.0158 0.1188,-0.0954 0.7254,-0.5845 1.0252,-0.8404 0.2774,-0.2368 0.5221,-0.4575 0.5432,-0.4774 0.0626,0.2794 0.105,0.5518 0.1316,0.8066 0.037,0.3578 0.04,0.692 0.0146,1.0032 -0.0442,0.5328 -0.1729,0.9989 -0.3617,1.4023 -0.1879,0.4036 -0.4359,0.7448 -0.7172,1.0271 -0.03,0.0299 -0.0599,0.0589 -0.0899,0.0872 -0.1676,0.1552 -0.3475,0.2962 -0.5395,0.4198 -0.1889,0.1212 -0.3883,0.226 -0.5953,0.3124 -0.3678,0.1536 -0.7365,0.2401 -1.0706,0.266 -0.4027,0.0312 -0.7804,-0.037 -1.0188,-0.1707 -0.0467,-0.0233 -0.088,-0.0422 -0.088,-0.0422 0,0 0,-0.4356 0,-0.585 0,-0.1123 1e-4,-0.7587 1e-4,-0.871 0.0148,-0.0138 0.1141,-0.1038 0.1141,-0.1094 0.1815,-0.1668 0.3995,-0.3674 0.5092,-0.4646 0.0788,-0.0695 0.1489,-0.1337 0.2303,-0.2005"
         id="path1224"
         inkscape:connector-curvature="0" /></clipPath><clipPath
       clipPathUnits="userSpaceOnUse"
       id="clipPath1230"><path
         d="m 8034.98,8146.8799 31.4902,0 0,37.3203 -31.4902,0 0,-37.3203 z"
         id="path1232"
         inkscape:connector-curvature="0" /></clipPath><clipPath
       clipPathUnits="userSpaceOnUse"
       id="clipPath1366"><path
         d="m 518.3145,35.8609 c 0.0542,-0.0461 0.0963,-0.0818 0.2249,-0.1896 0.0517,-0.0435 0.1856,-0.1554 0.2351,-0.197 0.0971,-0.081 0.4444,-0.3635 0.4852,-0.3973 0.0117,-0.0099 0.0358,-0.0295 0.0685,-0.0561 0.1978,-0.16 0.7192,-0.5788 0.8796,-0.7076 0.002,-0.0016 0.009,-0.007 0.0194,-0.0158 0.1188,-0.0954 0.7254,-0.5845 1.0252,-0.8404 0.2774,-0.2368 0.5221,-0.4575 0.5432,-0.4774 0.0626,0.2794 0.105,0.5518 0.1316,0.8066 0.037,0.3578 0.04,0.692 0.0146,1.0032 -0.0442,0.5328 -0.1729,0.9989 -0.3617,1.4023 -0.1879,0.4036 -0.4359,0.7448 -0.7172,1.0271 -0.03,0.0299 -0.0599,0.0589 -0.0899,0.0872 -0.1676,0.1552 -0.3475,0.2962 -0.5395,0.4198 -0.1889,0.1212 -0.3883,0.226 -0.5953,0.3124 -0.3678,0.1536 -0.7365,0.2401 -1.0706,0.266 -0.4027,0.0312 -0.7804,-0.037 -1.0188,-0.1707 -0.0467,-0.0233 -0.088,-0.0422 -0.088,-0.0422 0,0 0,-0.4356 0,-0.585 0,-0.1123 1e-4,-0.7587 1e-4,-0.871 0.0148,-0.0138 0.1141,-0.1038 0.1141,-0.1094 0.1815,-0.1668 0.3995,-0.3674 0.5092,-0.4646 0.0788,-0.0695 0.1489,-0.1337 0.2303,-0.2005"
         id="path1368"
         inkscape:connector-curvature="0" /></clipPath><clipPath
       clipPathUnits="userSpaceOnUse"
       id="clipPath1374"><path
         d="m 516.7572,27.1517 c 0.0201,-0.0685 0.0415,-0.1369 0.0642,-0.2049 0.0338,-0.1005 0.0703,-0.2016 0.1116,-0.3008 0.0639,-0.1526 0.1393,-0.3005 0.2355,-0.4329 0.073,-0.1007 0.1575,-0.1937 0.2611,-0.2636 0.044,-0.0293 0.0923,-0.0556 0.1455,-0.0777 0,0.427 0,2.1879 0,2.7723 0,3e-4 -0.0274,0.0059 -0.0529,0.0132 -0.0269,0.0074 -0.0613,0.017 -0.0613,0.0181 0,1.1798 0,2.2516 -1e-4,3.4316 -10e-5,0.7385 0,2.2445 0,2.9832 0,0.2908 0,0.3484 0,0.3862 0,0.1617 0.1138,0.2991 0.1138,0.2978 0,-0.0076 10e-5,7e-4 10e-5,10e-4 0,0.0481 -0.0254,0.1304 -0.0382,0.1677 -0.0403,0.1174 -0.0948,0.2301 -0.1534,0.3396 -0.0336,0.0624 0.003,0.0013 -0.0336,0.0624 -0.0949,0.1602 -0.2688,0.439 -0.3718,0.5936 -0.1511,0.2272 -0.1186,0.1801 -0.2746,0.4039 -0.0557,0.08 -0.166,0.2393 -0.2196,0.3246 -0.0776,0.1225 -0.1894,0.5174 -0.2438,0.6535 -0.1614,-0.1216 -0.419,-0.3135 -0.5822,-0.433 -0.3882,-0.2843 -0.7785,-0.5665 -1.1562,-0.8643 -0.2487,-0.1962 -0.4923,-0.3994 -0.7259,-0.6142 -0.2199,-0.2021 -0.4445,-0.4242 -0.6461,-0.6656 -0.3745,-0.4486 -0.6699,-0.9645 -0.7113,-1.5457 -0.007,-0.0975 -0.006,-0.1924 0.002,-0.2849 0.007,-0.1025 0.0205,-0.2011 0.0398,-0.2961 0.0747,-0.3714 0.2357,-0.6875 0.4452,-0.9702 0.2347,-0.3167 0.53,-0.5916 0.8327,-0.8555 0.0516,-0.0451 0.1036,-0.09 0.1557,-0.1348 0.3553,-0.3062 0.7169,-0.6105 1.0569,-0.9379 0.4911,-0.4733 0.9362,-0.9962 1.2503,-1.6463 0.28,-0.6142 0.3679,-1.2786 0.5568,-1.9203"
         id="path1376"
         inkscape:connector-curvature="0" /></clipPath><clipPath
       clipPathUnits="userSpaceOnUse"
       id="clipPath1382"><path
         d="m 7999.6899,8146.8799 36.0801,0 0,86.9902 -36.0801,0 0,-86.9902 z"
         id="path1384"
         inkscape:connector-curvature="0" /></clipPath><clipPath
       clipPathUnits="userSpaceOnUse"
       id="clipPath1624"><path
         d="m 516.7572,27.1517 c 0.0201,-0.0685 0.0415,-0.1369 0.0642,-0.2049 0.0338,-0.1005 0.0703,-0.2016 0.1116,-0.3008 0.0639,-0.1526 0.1393,-0.3005 0.2355,-0.4329 0.073,-0.1007 0.1575,-0.1937 0.2611,-0.2636 0.044,-0.0293 0.0923,-0.0556 0.1455,-0.0777 0,0.427 0,2.1879 0,2.7723 0,3e-4 -0.0274,0.0059 -0.0529,0.0132 -0.0269,0.0074 -0.0613,0.017 -0.0613,0.0181 0,1.1798 0,2.2516 -1e-4,3.4316 -10e-5,0.7385 0,2.2445 0,2.9832 0,0.2908 0,0.3484 0,0.3862 0,0.1617 0.1138,0.2991 0.1138,0.2978 0,-0.0076 10e-5,7e-4 10e-5,10e-4 0,0.0481 -0.0254,0.1304 -0.0382,0.1677 -0.0403,0.1174 -0.0948,0.2301 -0.1534,0.3396 -0.0336,0.0624 0.003,0.0013 -0.0336,0.0624 -0.0949,0.1602 -0.2688,0.439 -0.3718,0.5936 -0.1511,0.2272 -0.1186,0.1801 -0.2746,0.4039 -0.0557,0.08 -0.166,0.2393 -0.2196,0.3246 -0.0776,0.1225 -0.1894,0.5174 -0.2438,0.6535 -0.1614,-0.1216 -0.419,-0.3135 -0.5822,-0.433 -0.3882,-0.2843 -0.7785,-0.5665 -1.1562,-0.8643 -0.2487,-0.1962 -0.4923,-0.3994 -0.7259,-0.6142 -0.2199,-0.2021 -0.4445,-0.4242 -0.6461,-0.6656 -0.3745,-0.4486 -0.6699,-0.9645 -0.7113,-1.5457 -0.007,-0.0975 -0.006,-0.1924 0.002,-0.2849 0.007,-0.1025 0.0205,-0.2011 0.0398,-0.2961 0.0747,-0.3714 0.2357,-0.6875 0.4452,-0.9702 0.2347,-0.3167 0.53,-0.5916 0.8327,-0.8555 0.0516,-0.0451 0.1036,-0.09 0.1557,-0.1348 0.3553,-0.3062 0.7169,-0.6105 1.0569,-0.9379 0.4911,-0.4733 0.9362,-0.9962 1.2503,-1.6463 0.28,-0.6142 0.3679,-1.2786 0.5568,-1.9203"
         id="path1626"
         inkscape:connector-curvature="0" /></clipPath><linearGradient
       x1="0"
       y1="0"
       x2="1"
       y2="0"
       gradientUnits="userSpaceOnUse"
       gradientTransform="matrix(-1.42855,5.44916,5.44916,1.42855,517.3682,25.8176)"
       spreadMethod="pad"
       id="linearGradient1640"><stop
         style="stop-opacity:1;stop-color:#300203"
         offset="0"
         id="stop1642" /><stop
         style="stop-opacity:1;stop-color:#55070a"
         offset="1"
         id="stop1644" /></linearGradient><clipPath
       clipPathUnits="userSpaceOnUse"
       id="clipPath1652"><path
         d="m 516.8365,37.2676 c 0.0669,-0.0731 0.1522,-0.1607 0.2272,-0.2396 0.0947,-0.0994 0.1792,-0.1846 0.2901,-0.2909 0.0669,-0.0642 0.151,-0.1462 0.2212,-0.2111 0,0.3318 0,0.6587 0,0.9899 0,0.3749 0,0.7497 0,1.1245 0,0.3626 0,0.7253 0,1.0882 -0.0514,0.0136 -0.1294,0.0192 -0.2244,0.0149 -0.1575,-0.0071 -0.3607,-0.0424 -0.56,-0.1148 -0.1575,-0.0575 -0.3128,-0.1385 -0.4403,-0.2475 -0.1419,-0.1212 -0.2497,-0.2766 -0.291,-0.4737 -0.0428,-0.2036 -0.0126,-0.4523 0.1255,-0.7515 0.0653,-0.1411 0.171,-0.3182 0.2697,-0.4537 0.005,-0.0068 0.0766,-0.0917 0.1187,-0.1401 0.0807,-0.0936 0.1692,-0.1926 0.2633,-0.2946"
         id="path1654"
         inkscape:connector-curvature="0" /></clipPath><clipPath
       clipPathUnits="userSpaceOnUse"
       id="clipPath1660"><path
         d="m 8025.0098,8136.9199 10.7602,0 0,22.5 -10.7602,0 0,-22.5 z"
         id="path1662"
         inkscape:connector-curvature="0" /></clipPath><clipPath
       clipPathUnits="userSpaceOnUse"
       id="clipPath1768"><path
         d="m 516.8365,37.2676 c 0.0669,-0.0731 0.1522,-0.1607 0.2272,-0.2396 0.0947,-0.0994 0.1792,-0.1846 0.2901,-0.2909 0.0669,-0.0642 0.151,-0.1462 0.2212,-0.2111 0,0.3318 0,0.6587 0,0.9899 0,0.3749 0,0.7497 0,1.1245 0,0.3626 0,0.7253 0,1.0882 -0.0514,0.0136 -0.1294,0.0192 -0.2244,0.0149 -0.1575,-0.0071 -0.3607,-0.0424 -0.56,-0.1148 -0.1575,-0.0575 -0.3128,-0.1385 -0.4403,-0.2475 -0.1419,-0.1212 -0.2497,-0.2766 -0.291,-0.4737 -0.0428,-0.2036 -0.0126,-0.4523 0.1255,-0.7515 0.0653,-0.1411 0.171,-0.3182 0.2697,-0.4537 0.005,-0.0068 0.0766,-0.0917 0.1187,-0.1401 0.0807,-0.0936 0.1692,-0.1926 0.2633,-0.2946"
         id="path1770"
         inkscape:connector-curvature="0" /></clipPath><clipPath
       clipPathUnits="userSpaceOnUse"
       id="clipPath1782"><path
         d="m 362.782,7.1086 71.983,0 0,37.083 -71.983,0 0,-37.083 z"
         id="path1784"
         inkscape:connector-curvature="0" /></clipPath><clipPath
       clipPathUnits="userSpaceOnUse"
       id="clipPath1872"><path
         d="m 281.869,19.3956 69.4089,0 0,18.926 -69.4089,0 0,-18.926 z"
         id="path1874"
         inkscape:connector-curvature="0" /></clipPath><clipPath
       clipPathUnits="userSpaceOnUse"
       id="clipPath1880"><path
         d="m 281.869,25.0526 60.5652,0 0,13.2708 -60.5652,0 0,-13.2708 z"
         id="path1882"
         inkscape:connector-curvature="0" /></clipPath><clipPath
       clipPathUnits="userSpaceOnUse"
       id="clipPath1982"><path
         d="m 27.048,-5.6694 109.905,0 0,72.236 -109.905,0 0,-72.236 z"
         id="path1984"
         inkscape:connector-curvature="0" /></clipPath><clipPath
       clipPathUnits="userSpaceOnUse"
       id="clipPath1990"><path
         d="m 39.658,13.4386 84.9552,0 0,48.4659 -84.9552,0 0,-48.4659 z"
         id="path1992"
         inkscape:connector-curvature="0" /></clipPath><clipPath
       clipPathUnits="userSpaceOnUse"
       id="clipPath2038"><path
         d="m 625.903,45.4406 -43.625,-4.729 0,9.684 -80.764,0 0,-18.441 -6.451,-0.699 0,8.537 -55.318,0 0,-14.535 -18.382,-1.993 0,13.969 -58.581,0 0,-15.549 44.009,0 -122.878,-13.323 -1.196,11.034 68.561,0 0,18.926 -8.716,0 -60.693,0 0,-11.102 -4.793,44.198 326.606,0 0,178.972"
         clip-rule="evenodd"
         id="path2040"
         inkscape:connector-curvature="0" /></clipPath><clipPath
       clipPathUnits="userSpaceOnUse"
       id="clipPath2050"><path
         d="m 593.674,342.6936 1.998,-18.424 -70.366,0 -2.625,5.597 -51.623,-5.597 -47.312,0"
         clip-rule="evenodd"
         id="path2052"
         inkscape:connector-curvature="0" /></clipPath><clipPath
       clipPathUnits="userSpaceOnUse"
       id="clipPath2062"><path
         d="m 251.684,305.6146 172.062,18.655 171.926,0 8.01,-73.88 0,-178.972 -326.606,0 -25.392,234.197 z m 268.458,-164.31 -135,0 0,-44 135,0"
         clip-rule="evenodd"
         id="path2064"
         inkscape:connector-curvature="0" /></clipPath><clipPath
       clipPathUnits="userSpaceOnUse"
       id="clipPath2074"><path
         d="m 501.514,50.3956 80.764,0 0,-9.684 -80.764,-8.757"
         clip-rule="evenodd"
         id="path2076"
         inkscape:connector-curvature="0" /></clipPath><clipPath
       clipPathUnits="userSpaceOnUse"
       id="clipPath2086"><path
         d="m 439.745,39.7926 55.318,0 0,-8.537 -55.318,-5.998"
         clip-rule="evenodd"
         id="path2088"
         inkscape:connector-curvature="0" /></clipPath><clipPath
       clipPathUnits="userSpaceOnUse"
       id="clipPath2098"><path
         d="m 362.782,21.6846 0,15.549 58.581,0 0,-13.969 -14.572,-1.58"
         clip-rule="evenodd"
         id="path2100"
         inkscape:connector-curvature="0" /></clipPath><clipPath
       clipPathUnits="userSpaceOnUse"
       id="clipPath2110"><path
         d="m 282.105,25.0356 60.457,0 0,13.286 8.716,0 0,-18.926 -68.561,0"
         clip-rule="evenodd"
         id="path2112"
         inkscape:connector-curvature="0" /></clipPath><clipPath
       clipPathUnits="userSpaceOnUse"
       id="clipPath2122"><path
         d="m 281.869,38.3216 60.693,0 0,-13.286 -60.457,0 -0.236,2.184"
         clip-rule="evenodd"
         id="path2124"
         inkscape:connector-curvature="0" /></clipPath><clipPath
       clipPathUnits="userSpaceOnUse"
       id="clipPath2134"><path
         d="M 259.1444,301.2982 573.3295,335.365 602.5573,65.8075 288.3722,31.7408"
         clip-rule="evenodd"
         id="path2136"
         inkscape:connector-curvature="0" /></clipPath><clipPath
       clipPathUnits="userSpaceOnUse"
       id="clipPath2142"><path
         d="M 277.617,252.0049 385.8778,21.1981 616.6846,129.4589 508.4238,360.2657"
         id="path2144"
         inkscape:connector-curvature="0" /></clipPath><linearGradient
       x1="0"
       y1="0"
       x2="1"
       y2="0"
       gradientUnits="userSpaceOnUse"
       gradientTransform="matrix(297.63351,-25.36416,-25.36416,-297.63351,276.5459,205.2708)"
       spreadMethod="pad"
       id="linearGradient2156"><stop
         style="stop-opacity:1;stop-color:#fbc707"
         offset="0"
         id="stop2158" /><stop
         style="stop-opacity:1;stop-color:#f8a30d"
         offset="0.88344"
         id="stop2160" /><stop
         style="stop-opacity:1;stop-color:#f8a30d"
         offset="0.88344"
         id="stop2162" /><stop
         style="stop-opacity:1;stop-color:#f8a30d"
         offset="1"
         id="stop2164" /></linearGradient><clipPath
       clipPathUnits="userSpaceOnUse"
       id="clipPath2172"><path
         d="m 385.142,97.3046 135,0 0,44 -135,0 0,-44 z"
         id="path2174"
         inkscape:connector-curvature="0" /></clipPath><clipPath
       clipPathUnits="userSpaceOnUse"
       id="clipPath2202"><path
         d="m 52.0439,369.34 0,2.5918 c 0,5.224 -0.5628,8.9091 -1.7352,11.0959 -1.1725,2.1463 -3.5643,3.9686 -7.1755,5.386 -3.6112,1.4174 -8.0197,2.1463 -13.1316,2.1463 -4.6899,0 -8.6763,-0.648 -12.0061,-1.9438 -3.3298,-1.3364 -5.7216,-3.1587 -7.1755,-5.467 -1.5007,-2.3083 -2.2511,-5.9934 -2.2511,-11.015 0,-3.4826 0.5159,-6.3579 1.5945,-8.5852 1.0318,-2.2273 2.345,-4.0091 3.9395,-5.2645 1.5946,-1.2553 4.8306,-3.3206 9.7549,-6.1149 4.9244,-2.7942 7.9728,-4.7785 9.2391,-5.9529 1.2193,-1.1744 1.829,-3.7257 1.829,-7.5728 0,-3.5232 -1.2662,-5.305 -3.8926,-5.305 -2.6263,0 -3.5174,0.8909 -3.5174,5.791 l 0,7.9777 -18.3373,0 0,-4.2926 c 0,-4.9 0.5628,-8.7067 1.7352,-11.3794 1.1725,-2.6728 3.6112,-4.8596 7.3631,-6.6009 3.705,-1.7413 8.2073,-2.5917 13.5068,-2.5917 4.8306,0 9.0514,0.7289 12.6626,2.2677 3.6112,1.4984 6.0969,3.3207 7.3631,5.548 1.2663,2.2273 1.876,5.6695 1.876,10.3265 0,6.4389 -1.1256,11.096 -3.4236,13.9712 -2.2981,2.8753 -7.8321,6.6009 -16.6021,11.096 -3.0485,1.5793 -4.9244,2.9157 -5.581,4.0091 -0.7035,1.0934 -1.0318,2.7537 -1.0318,4.9405 0,3.4017 1.2194,5.0621 3.6112,5.0621 2.2043,0 3.0485,-0.729 3.0485,-5.2646 l 0,-4.8595 18.3373,0 z m 47.6002,19.8431 -43.1468,0 0,-13.1207 11.6778,0 0,-52.4426 19.7443,0 0,52.4426 11.7247,0 0,13.1207 z m 34.7519,0 -28.5613,0 -10.0363,-65.5633 20.4478,0 1.1725,11.7844 7.0817,0 0.9848,-11.7844 20.2133,0 -11.3025,65.5633 z m -10.4584,-42.1565 -6.7534,0 c 0.5159,5.791 1.7352,14.9836 3.7519,27.4969 0.9848,-10.8935 2.0166,-20.0861 3.0015,-27.4969 z m 25.136,42.1565 0,-65.5633 19.7443,0 0,29.5622 c 5.4403,0 6.0031,-0.7694 6.0031,-7.7752 l 0,-21.787 18.3373,0 0,17.2919 c 0,5.305 -0.1407,8.5447 -0.469,9.7191 -0.3282,1.1743 -1.1724,2.4297 -2.5325,3.8471 -1.36,1.4174 -3.9864,2.5108 -7.879,3.3612 8.6294,0.6884 10.8805,3.2397 10.8805,13.4447 0,5.5885 -1.0317,9.6786 -3.0953,12.2299 -2.1104,2.5512 -4.7836,4.1306 -8.0665,4.738 -3.3298,0.6075 -9.6143,0.9314 -18.9471,0.9314 l -13.9758,0 z m 19.7443,-11.2174 c 4.5492,0 6.0031,-0.8909 6.0031,-5.062 l 0,-3.6042 c 0,-5.791 -1.5477,-5.9124 -6.0031,-5.9124 l 0,14.5786 z m 71.7532,11.2174 -43.1468,0 0,-13.1207 11.6778,0 0,-52.4426 19.7443,0 0,52.4426 11.7247,0 0,13.1207 z m 49.3827,0 -19.7444,0 0,-48.3119 c 0,-6.5199 -0.4689,-7.5323 -2.9545,-7.5323 -2.2043,0 -2.7202,0.9719 -2.7202,6.6819 l 0,49.1623 -19.7443,0 0,-38.7953 c 0,-7.4108 0.1407,-12.2299 0.469,-14.5381 0.3283,-2.3083 1.3132,-4.5356 3.0484,-6.6009 1.7352,-2.0653 4.3147,-3.7662 7.7852,-5.062 3.4705,-1.2959 7.4568,-1.9438 12.006,-1.9438 4.0802,0 7.6445,0.5264 10.6929,1.6603 3.0015,1.0934 5.4402,2.6727 7.2693,4.819 1.829,2.1058 2.9546,4.1711 3.3298,6.1959 0.3752,1.9844 0.5628,5.467 0.5628,10.4481 l 0,43.8168 z m 7.6425,0 0,-65.5633 19.7443,0 0,26.4035 5.2996,0 c 4.3147,0 7.8321,0.5265 10.5053,1.5389 2.6732,1.0124 4.5023,2.5107 5.4871,4.4141 0.9849,1.9033 1.5008,4.981 1.5008,9.1521 l 0,5.71 c 0,4.0901 -0.2345,7.1273 -0.7504,9.1116 -0.5159,1.9438 -1.5007,3.6042 -2.9546,4.981 -1.4539,1.3769 -3.6581,2.4298 -6.5189,3.1587 -2.9077,0.729 -7.0348,1.0934 -12.4281,1.0934 l -19.8851,0 z m 19.7443,-11.2174 c 5.112,0 6.2845,-0.8909 6.2845,-5.386 l 0,-5.386 c 0,-4.8595 -1.2194,-5.9529 -4.8306,-5.9529 -0.4221,0 -0.8911,0 -1.4539,0.0405 l 0,16.6844 z m 92.3928,-12.9183 0,2.8347 c 0,5.386 -0.5628,9.4761 -1.7352,12.3109 -1.1725,2.7942 -3.6581,5.224 -7.4569,7.2893 -3.7988,2.0653 -8.6294,3.0777 -14.3979,3.0777 -5.8623,0 -10.646,-1.1744 -14.351,-3.5231 -3.705,-2.3893 -5.9561,-4.9811 -6.7534,-7.8158 -0.7973,-2.8347 -1.1725,-7.3703 -1.1725,-13.6472 l 0,-19.4787 c 0,-4.4951 0.1876,-7.8968 0.5628,-10.124 0.3752,-2.2678 1.3132,-4.4141 2.814,-6.4794 1.5007,-2.0653 3.7049,-3.7662 6.6127,-5.143 2.8608,-1.4174 5.9561,-2.1058 9.2859,-2.1058 5.5809,0 9.6611,2.0248 12.3343,6.0744 l 1.8291,-4.6976 12.4281,0 0,35.1912 -23.121,0 0,-9.9621 3.9864,0 0,-7.7752 c 0,-6.115 -0.8442,-7.7348 -3.705,-7.7348 -2.6263,0 -3.2829,1.3364 -3.2829,7.2083 l 0,31.4656 c 0,6.6818 0.7035,7.4513 3.1422,7.4513 2.8139,0 3.236,-0.972 3.236,-8.4638 l 0,-5.9529 19.7443,0 z m 52.5248,24.1357 -19.7443,0 0,-48.3119 c 0,-6.5199 -0.469,-7.5323 -2.9546,-7.5323 -2.2043,0 -2.7201,0.9719 -2.7201,6.6819 l 0,49.1623 -19.7444,0 0,-38.7953 c 0,-7.4108 0.1407,-12.2299 0.469,-14.5381 0.3283,-2.3083 1.3132,-4.5356 3.0484,-6.6009 1.7353,-2.0653 4.3147,-3.7662 7.7852,-5.062 3.4705,-1.2959 7.4569,-1.9438 12.0061,-1.9438 4.0801,0 7.6444,0.5264 10.6928,1.6603 3.0016,1.0934 5.4403,2.6727 7.2693,4.819 1.8291,2.1058 2.9547,4.1711 3.3298,6.1959 0.3752,1.9844 0.5628,5.467 0.5628,10.4481 l 0,43.8168 z m 27.3869,0 -19.7443,0 0,-65.5633 19.7443,0 0,65.5633 z m 7.925,0 0,-65.5633 24.9032,0 c 4.7367,0 8.2541,0.243 10.599,0.6885 2.345,0.4454 4.3147,1.2148 5.9093,2.3487 1.5945,1.0934 2.7201,2.6728 3.3767,4.6571 0.6097,1.9843 0.938,5.9124 0.938,11.7844 l 0,22.9613 c 0,6.1959 -0.2345,10.367 -0.6567,12.5133 -0.422,2.1059 -1.5476,4.0091 -3.2828,5.7505 -1.7353,1.7413 -4.3147,2.9562 -7.6445,3.7256 -3.3767,0.7695 -9.8487,1.1339 -19.3692,1.1339 l -14.773,0 z m 19.7443,-11.2174 c 2.1573,0 3.6112,-0.2025 4.4085,-0.567 0.7972,-0.4049 1.2662,-1.0123 1.5007,-1.8628 0.2345,-0.8504 0.3283,-2.7537 0.3283,-5.7099 l 0,-25.4721 c 0,-8.7472 -0.5628,-9.5167 -6.2375,-9.5167 l 0,43.1285 z m 33.3431,11.2174 0,-65.5633 34.236,0 0,13.1208 -14.4917,0 0,14.4166 12.3343,0 0,12.4728 -12.3343,0 0,12.4324 13.1785,0 0,13.1207"
         id="path2204"
         inkscape:connector-curvature="0" /></clipPath><clipPath
       clipPathUnits="userSpaceOnUse"
       id="clipPath2212"><path
         d="m 52.0439,369.34 0,2.5918 c 0,5.224 -0.5628,8.9091 -1.7352,11.0959 -1.1725,2.1463 -3.5643,3.9686 -7.1755,5.386 -3.6112,1.4174 -8.0197,2.1463 -13.1316,2.1463 -4.6899,0 -8.6763,-0.648 -12.0061,-1.9438 -3.3298,-1.3364 -5.7216,-3.1587 -7.1755,-5.467 -1.5007,-2.3083 -2.2511,-5.9934 -2.2511,-11.015 0,-3.4826 0.5159,-6.3579 1.5945,-8.5852 1.0318,-2.2273 2.345,-4.0091 3.9395,-5.2645 1.5946,-1.2553 4.8306,-3.3206 9.7549,-6.1149 4.9244,-2.7942 7.9728,-4.7785 9.2391,-5.9529 1.2193,-1.1744 1.829,-3.7257 1.829,-7.5728 0,-3.5232 -1.2662,-5.305 -3.8926,-5.305 -2.6263,0 -3.5174,0.8909 -3.5174,5.791 l 0,7.9777 -18.3373,0 0,-4.2926 c 0,-4.9 0.5628,-8.7067 1.7352,-11.3794 1.1725,-2.6728 3.6112,-4.8596 7.3631,-6.6009 3.705,-1.7413 8.2073,-2.5917 13.5068,-2.5917 4.8306,0 9.0514,0.7289 12.6626,2.2677 3.6112,1.4984 6.0969,3.3207 7.3631,5.548 1.2663,2.2273 1.876,5.6695 1.876,10.3265 0,6.4389 -1.1256,11.096 -3.4236,13.9712 -2.2981,2.8753 -7.8321,6.6009 -16.6021,11.096 -3.0485,1.5793 -4.9244,2.9157 -5.581,4.0091 -0.7035,1.0934 -1.0318,2.7537 -1.0318,4.9405 0,3.4017 1.2194,5.0621 3.6112,5.0621 2.2043,0 3.0485,-0.729 3.0485,-5.2646 l 0,-4.8595 18.3373,0 z m 47.6002,19.8431 -43.1468,0 0,-13.1207 11.6778,0 0,-52.4426 19.7443,0 0,52.4426 11.7247,0 0,13.1207 z m 34.7519,0 -28.5613,0 -10.0363,-65.5633 20.4478,0 1.1725,11.7844 7.0817,0 0.9848,-11.7844 20.2133,0 -11.3025,65.5633 z m -10.4584,-42.1565 -6.7534,0 c 0.5159,5.791 1.7352,14.9836 3.7519,27.4969 0.9848,-10.8935 2.0166,-20.0861 3.0015,-27.4969 z m 25.136,42.1565 0,-65.5633 19.7443,0 0,29.5622 c 5.4403,0 6.0031,-0.7694 6.0031,-7.7752 l 0,-21.787 18.3373,0 0,17.2919 c 0,5.305 -0.1407,8.5447 -0.469,9.7191 -0.3282,1.1743 -1.1724,2.4297 -2.5325,3.8471 -1.36,1.4174 -3.9864,2.5108 -7.879,3.3612 8.6294,0.6884 10.8805,3.2397 10.8805,13.4447 0,5.5885 -1.0317,9.6786 -3.0953,12.2299 -2.1104,2.5512 -4.7836,4.1306 -8.0665,4.738 -3.3298,0.6075 -9.6143,0.9314 -18.9471,0.9314 l -13.9758,0 z m 19.7443,-11.2174 c 4.5492,0 6.0031,-0.8909 6.0031,-5.062 l 0,-3.6042 c 0,-5.791 -1.5477,-5.9124 -6.0031,-5.9124 l 0,14.5786 z m 71.7532,11.2174 -43.1468,0 0,-13.1207 11.6778,0 0,-52.4426 19.7443,0 0,52.4426 11.7247,0 0,13.1207 z m 49.3827,0 -19.7444,0 0,-48.3119 c 0,-6.5199 -0.4689,-7.5323 -2.9545,-7.5323 -2.2043,0 -2.7202,0.9719 -2.7202,6.6819 l 0,49.1623 -19.7443,0 0,-38.7953 c 0,-7.4108 0.1407,-12.2299 0.469,-14.5381 0.3283,-2.3083 1.3132,-4.5356 3.0484,-6.6009 1.7352,-2.0653 4.3147,-3.7662 7.7852,-5.062 3.4705,-1.2959 7.4568,-1.9438 12.006,-1.9438 4.0802,0 7.6445,0.5264 10.6929,1.6603 3.0015,1.0934 5.4402,2.6727 7.2693,4.819 1.829,2.1058 2.9546,4.1711 3.3298,6.1959 0.3752,1.9844 0.5628,5.467 0.5628,10.4481 l 0,43.8168 z m 7.6425,0 0,-65.5633 19.7443,0 0,26.4035 5.2996,0 c 4.3147,0 7.8321,0.5265 10.5053,1.5389 2.6732,1.0124 4.5023,2.5107 5.4871,4.4141 0.9849,1.9033 1.5008,4.981 1.5008,9.1521 l 0,5.71 c 0,4.0901 -0.2345,7.1273 -0.7504,9.1116 -0.5159,1.9438 -1.5007,3.6042 -2.9546,4.981 -1.4539,1.3769 -3.6581,2.4298 -6.5189,3.1587 -2.9077,0.729 -7.0348,1.0934 -12.4281,1.0934 l -19.8851,0 z m 19.7443,-11.2174 c 5.112,0 6.2845,-0.8909 6.2845,-5.386 l 0,-5.386 c 0,-4.8595 -1.2194,-5.9529 -4.8306,-5.9529 -0.4221,0 -0.8911,0 -1.4539,0.0405 l 0,16.6844 z m 92.3928,-12.9183 0,2.8347 c 0,5.386 -0.5628,9.4761 -1.7352,12.3109 -1.1725,2.7942 -3.6581,5.224 -7.4569,7.2893 -3.7988,2.0653 -8.6294,3.0777 -14.3979,3.0777 -5.8623,0 -10.646,-1.1744 -14.351,-3.5231 -3.705,-2.3893 -5.9561,-4.9811 -6.7534,-7.8158 -0.7973,-2.8347 -1.1725,-7.3703 -1.1725,-13.6472 l 0,-19.4787 c 0,-4.4951 0.1876,-7.8968 0.5628,-10.124 0.3752,-2.2678 1.3132,-4.4141 2.814,-6.4794 1.5007,-2.0653 3.7049,-3.7662 6.6127,-5.143 2.8608,-1.4174 5.9561,-2.1058 9.2859,-2.1058 5.5809,0 9.6611,2.0248 12.3343,6.0744 l 1.8291,-4.6976 12.4281,0 0,35.1912 -23.121,0 0,-9.9621 3.9864,0 0,-7.7752 c 0,-6.115 -0.8442,-7.7348 -3.705,-7.7348 -2.6263,0 -3.2829,1.3364 -3.2829,7.2083 l 0,31.4656 c 0,6.6818 0.7035,7.4513 3.1422,7.4513 2.8139,0 3.236,-0.972 3.236,-8.4638 l 0,-5.9529 19.7443,0 z m 52.5248,24.1357 -19.7443,0 0,-48.3119 c 0,-6.5199 -0.469,-7.5323 -2.9546,-7.5323 -2.2043,0 -2.7201,0.9719 -2.7201,6.6819 l 0,49.1623 -19.7444,0 0,-38.7953 c 0,-7.4108 0.1407,-12.2299 0.469,-14.5381 0.3283,-2.3083 1.3132,-4.5356 3.0484,-6.6009 1.7353,-2.0653 4.3147,-3.7662 7.7852,-5.062 3.4705,-1.2959 7.4569,-1.9438 12.0061,-1.9438 4.0801,0 7.6444,0.5264 10.6928,1.6603 3.0016,1.0934 5.4403,2.6727 7.2693,4.819 1.8291,2.1058 2.9547,4.1711 3.3298,6.1959 0.3752,1.9844 0.5628,5.467 0.5628,10.4481 l 0,43.8168 z m 27.3869,0 -19.7443,0 0,-65.5633 19.7443,0 0,65.5633 z m 7.925,0 0,-65.5633 24.9032,0 c 4.7367,0 8.2541,0.243 10.599,0.6885 2.345,0.4454 4.3147,1.2148 5.9093,2.3487 1.5945,1.0934 2.7201,2.6728 3.3767,4.6571 0.6097,1.9843 0.938,5.9124 0.938,11.7844 l 0,22.9613 c 0,6.1959 -0.2345,10.367 -0.6567,12.5133 -0.422,2.1059 -1.5476,4.0091 -3.2828,5.7505 -1.7353,1.7413 -4.3147,2.9562 -7.6445,3.7256 -3.3767,0.7695 -9.8487,1.1339 -19.3692,1.1339 l -14.773,0 z m 19.7443,-11.2174 c 2.1573,0 3.6112,-0.2025 4.4085,-0.567 0.7972,-0.4049 1.2662,-1.0123 1.5007,-1.8628 0.2345,-0.8504 0.3283,-2.7537 0.3283,-5.7099 l 0,-25.4721 c 0,-8.7472 -0.5628,-9.5167 -6.2375,-9.5167 l 0,43.1285 z m 33.3431,11.2174 0,-65.5633 34.236,0 0,13.1208 -14.4917,0 0,14.4166 12.3343,0 0,12.4728 -12.3343,0 0,12.4324 13.1785,0 0,13.1207"
         id="path2214"
         inkscape:connector-curvature="0" /></clipPath><clipPath
       clipPathUnits="userSpaceOnUse"
       id="clipPath2222"><path
         d="m 52.0439,369.34 0,2.5918 c 0,5.224 -0.5628,8.9091 -1.7352,11.0959 -1.1725,2.1463 -3.5643,3.9686 -7.1755,5.386 -3.6112,1.4174 -8.0197,2.1463 -13.1316,2.1463 -4.6899,0 -8.6763,-0.648 -12.0061,-1.9438 -3.3298,-1.3364 -5.7216,-3.1587 -7.1755,-5.467 -1.5007,-2.3083 -2.2511,-5.9934 -2.2511,-11.015 0,-3.4826 0.5159,-6.3579 1.5945,-8.5852 1.0318,-2.2273 2.345,-4.0091 3.9395,-5.2645 1.5946,-1.2553 4.8306,-3.3206 9.7549,-6.1149 4.9244,-2.7942 7.9728,-4.7785 9.2391,-5.9529 1.2193,-1.1744 1.829,-3.7257 1.829,-7.5728 0,-3.5232 -1.2662,-5.305 -3.8926,-5.305 -2.6263,0 -3.5174,0.8909 -3.5174,5.791 l 0,7.9777 -18.3373,0 0,-4.2926 c 0,-4.9 0.5628,-8.7067 1.7352,-11.3794 1.1725,-2.6728 3.6112,-4.8596 7.3631,-6.6009 3.705,-1.7413 8.2073,-2.5917 13.5068,-2.5917 4.8306,0 9.0514,0.7289 12.6626,2.2677 3.6112,1.4984 6.0969,3.3207 7.3631,5.548 1.2663,2.2273 1.876,5.6695 1.876,10.3265 0,6.4389 -1.1256,11.096 -3.4236,13.9712 -2.2981,2.8753 -7.8321,6.6009 -16.6021,11.096 -3.0485,1.5793 -4.9244,2.9157 -5.581,4.0091 -0.7035,1.0934 -1.0318,2.7537 -1.0318,4.9405 0,3.4017 1.2194,5.0621 3.6112,5.0621 2.2043,0 3.0485,-0.729 3.0485,-5.2646 l 0,-4.8595 18.3373,0 z m 47.6002,19.8431 -43.1468,0 0,-13.1207 11.6778,0 0,-52.4426 19.7443,0 0,52.4426 11.7247,0 0,13.1207 z m 34.7519,0 -28.5613,0 -10.0363,-65.5633 20.4478,0 1.1725,11.7844 7.0817,0 0.9848,-11.7844 20.2133,0 -11.3025,65.5633 z m -10.4584,-42.1565 -6.7534,0 c 0.5159,5.791 1.7352,14.9836 3.7519,27.4969 0.9848,-10.8935 2.0166,-20.0861 3.0015,-27.4969 z m 25.136,42.1565 0,-65.5633 19.7443,0 0,29.5622 c 5.4403,0 6.0031,-0.7694 6.0031,-7.7752 l 0,-21.787 18.3373,0 0,17.2919 c 0,5.305 -0.1407,8.5447 -0.469,9.7191 -0.3282,1.1743 -1.1724,2.4297 -2.5325,3.8471 -1.36,1.4174 -3.9864,2.5108 -7.879,3.3612 8.6294,0.6884 10.8805,3.2397 10.8805,13.4447 0,5.5885 -1.0317,9.6786 -3.0953,12.2299 -2.1104,2.5512 -4.7836,4.1306 -8.0665,4.738 -3.3298,0.6075 -9.6143,0.9314 -18.9471,0.9314 l -13.9758,0 z m 19.7443,-11.2174 c 4.5492,0 6.0031,-0.8909 6.0031,-5.062 l 0,-3.6042 c 0,-5.791 -1.5477,-5.9124 -6.0031,-5.9124 l 0,14.5786 z m 71.7532,11.2174 -43.1468,0 0,-13.1207 11.6778,0 0,-52.4426 19.7443,0 0,52.4426 11.7247,0 0,13.1207 z m 49.3827,0 -19.7444,0 0,-48.3119 c 0,-6.5199 -0.4689,-7.5323 -2.9545,-7.5323 -2.2043,0 -2.7202,0.9719 -2.7202,6.6819 l 0,49.1623 -19.7443,0 0,-38.7953 c 0,-7.4108 0.1407,-12.2299 0.469,-14.5381 0.3283,-2.3083 1.3132,-4.5356 3.0484,-6.6009 1.7352,-2.0653 4.3147,-3.7662 7.7852,-5.062 3.4705,-1.2959 7.4568,-1.9438 12.006,-1.9438 4.0802,0 7.6445,0.5264 10.6929,1.6603 3.0015,1.0934 5.4402,2.6727 7.2693,4.819 1.829,2.1058 2.9546,4.1711 3.3298,6.1959 0.3752,1.9844 0.5628,5.467 0.5628,10.4481 l 0,43.8168 z m 7.6425,0 0,-65.5633 19.7443,0 0,26.4035 5.2996,0 c 4.3147,0 7.8321,0.5265 10.5053,1.5389 2.6732,1.0124 4.5023,2.5107 5.4871,4.4141 0.9849,1.9033 1.5008,4.981 1.5008,9.1521 l 0,5.71 c 0,4.0901 -0.2345,7.1273 -0.7504,9.1116 -0.5159,1.9438 -1.5007,3.6042 -2.9546,4.981 -1.4539,1.3769 -3.6581,2.4298 -6.5189,3.1587 -2.9077,0.729 -7.0348,1.0934 -12.4281,1.0934 l -19.8851,0 z m 19.7443,-11.2174 c 5.112,0 6.2845,-0.8909 6.2845,-5.386 l 0,-5.386 c 0,-4.8595 -1.2194,-5.9529 -4.8306,-5.9529 -0.4221,0 -0.8911,0 -1.4539,0.0405 l 0,16.6844 z m 92.3928,-12.9183 0,2.8347 c 0,5.386 -0.5628,9.4761 -1.7352,12.3109 -1.1725,2.7942 -3.6581,5.224 -7.4569,7.2893 -3.7988,2.0653 -8.6294,3.0777 -14.3979,3.0777 -5.8623,0 -10.646,-1.1744 -14.351,-3.5231 -3.705,-2.3893 -5.9561,-4.9811 -6.7534,-7.8158 -0.7973,-2.8347 -1.1725,-7.3703 -1.1725,-13.6472 l 0,-19.4787 c 0,-4.4951 0.1876,-7.8968 0.5628,-10.124 0.3752,-2.2678 1.3132,-4.4141 2.814,-6.4794 1.5007,-2.0653 3.7049,-3.7662 6.6127,-5.143 2.8608,-1.4174 5.9561,-2.1058 9.2859,-2.1058 5.5809,0 9.6611,2.0248 12.3343,6.0744 l 1.8291,-4.6976 12.4281,0 0,35.1912 -23.121,0 0,-9.9621 3.9864,0 0,-7.7752 c 0,-6.115 -0.8442,-7.7348 -3.705,-7.7348 -2.6263,0 -3.2829,1.3364 -3.2829,7.2083 l 0,31.4656 c 0,6.6818 0.7035,7.4513 3.1422,7.4513 2.8139,0 3.236,-0.972 3.236,-8.4638 l 0,-5.9529 19.7443,0 z m 52.5248,24.1357 -19.7443,0 0,-48.3119 c 0,-6.5199 -0.469,-7.5323 -2.9546,-7.5323 -2.2043,0 -2.7201,0.9719 -2.7201,6.6819 l 0,49.1623 -19.7444,0 0,-38.7953 c 0,-7.4108 0.1407,-12.2299 0.469,-14.5381 0.3283,-2.3083 1.3132,-4.5356 3.0484,-6.6009 1.7353,-2.0653 4.3147,-3.7662 7.7852,-5.062 3.4705,-1.2959 7.4569,-1.9438 12.0061,-1.9438 4.0801,0 7.6444,0.5264 10.6928,1.6603 3.0016,1.0934 5.4403,2.6727 7.2693,4.819 1.8291,2.1058 2.9547,4.1711 3.3298,6.1959 0.3752,1.9844 0.5628,5.467 0.5628,10.4481 l 0,43.8168 z m 27.3869,0 -19.7443,0 0,-65.5633 19.7443,0 0,65.5633 z m 7.925,0 0,-65.5633 24.9032,0 c 4.7367,0 8.2541,0.243 10.599,0.6885 2.345,0.4454 4.3147,1.2148 5.9093,2.3487 1.5945,1.0934 2.7201,2.6728 3.3767,4.6571 0.6097,1.9843 0.938,5.9124 0.938,11.7844 l 0,22.9613 c 0,6.1959 -0.2345,10.367 -0.6567,12.5133 -0.422,2.1059 -1.5476,4.0091 -3.2828,5.7505 -1.7353,1.7413 -4.3147,2.9562 -7.6445,3.7256 -3.3767,0.7695 -9.8487,1.1339 -19.3692,1.1339 l -14.773,0 z m 19.7443,-11.2174 c 2.1573,0 3.6112,-0.2025 4.4085,-0.567 0.7972,-0.4049 1.2662,-1.0123 1.5007,-1.8628 0.2345,-0.8504 0.3283,-2.7537 0.3283,-5.7099 l 0,-25.4721 c 0,-8.7472 -0.5628,-9.5167 -6.2375,-9.5167 l 0,43.1285 z m 33.3431,11.2174 0,-65.5633 34.236,0 0,13.1208 -14.4917,0 0,14.4166 12.3343,0 0,12.4728 -12.3343,0 0,12.4324 13.1785,0 0,13.1207"
         id="path2224"
         inkscape:connector-curvature="0" /></clipPath><clipPath
       clipPathUnits="userSpaceOnUse"
       id="clipPath2230"><path
         d="m 423.746,324.2696 -18.6909,-2.026 -396.4421,0 0,2.026"
         clip-rule="evenodd"
         id="path2232"
         inkscape:connector-curvature="0" /></clipPath><clipPath
       clipPathUnits="userSpaceOnUse"
       id="clipPath2242"><path
         d="m 52.0439,369.34 0,2.5918 c 0,5.224 -0.5628,8.9091 -1.7352,11.0959 -1.1725,2.1463 -3.5643,3.9686 -7.1755,5.386 -3.6112,1.4174 -8.0197,2.1463 -13.1316,2.1463 -4.6899,0 -8.6763,-0.648 -12.0061,-1.9438 -3.3298,-1.3364 -5.7216,-3.1587 -7.1755,-5.467 -1.5007,-2.3083 -2.2511,-5.9934 -2.2511,-11.015 0,-3.4826 0.5159,-6.3579 1.5945,-8.5852 1.0318,-2.2273 2.345,-4.0091 3.9395,-5.2645 1.5946,-1.2553 4.8306,-3.3206 9.7549,-6.1149 4.9244,-2.7942 7.9728,-4.7785 9.2391,-5.9529 1.2193,-1.1744 1.829,-3.7257 1.829,-7.5728 0,-3.5232 -1.2662,-5.305 -3.8926,-5.305 -2.6263,0 -3.5174,0.8909 -3.5174,5.791 l 0,7.9777 -18.3373,0 0,-4.2926 c 0,-4.9 0.5628,-8.7067 1.7352,-11.3794 1.1725,-2.6728 3.6112,-4.8596 7.3631,-6.6009 3.705,-1.7413 8.2073,-2.5917 13.5068,-2.5917 4.8306,0 9.0514,0.7289 12.6626,2.2677 3.6112,1.4984 6.0969,3.3207 7.3631,5.548 1.2663,2.2273 1.876,5.6695 1.876,10.3265 0,6.4389 -1.1256,11.096 -3.4236,13.9712 -2.2981,2.8753 -7.8321,6.6009 -16.6021,11.096 -3.0485,1.5793 -4.9244,2.9157 -5.581,4.0091 -0.7035,1.0934 -1.0318,2.7537 -1.0318,4.9405 0,3.4017 1.2194,5.0621 3.6112,5.0621 2.2043,0 3.0485,-0.729 3.0485,-5.2646 l 0,-4.8595 18.3373,0 z m 47.6002,19.8431 -43.1468,0 0,-13.1207 11.6778,0 0,-52.4426 19.7443,0 0,52.4426 11.7247,0 0,13.1207 z m 34.7519,0 -28.5613,0 -10.0363,-65.5633 20.4478,0 1.1725,11.7844 7.0817,0 0.9848,-11.7844 20.2133,0 -11.3025,65.5633 z m -10.4584,-42.1565 -6.7534,0 c 0.5159,5.791 1.7352,14.9836 3.7519,27.4969 0.9848,-10.8935 2.0166,-20.0861 3.0015,-27.4969 z m 25.136,42.1565 0,-65.5633 19.7443,0 0,29.5622 c 5.4403,0 6.0031,-0.7694 6.0031,-7.7752 l 0,-21.787 18.3373,0 0,17.2919 c 0,5.305 -0.1407,8.5447 -0.469,9.7191 -0.3282,1.1743 -1.1724,2.4297 -2.5325,3.8471 -1.36,1.4174 -3.9864,2.5108 -7.879,3.3612 8.6294,0.6884 10.8805,3.2397 10.8805,13.4447 0,5.5885 -1.0317,9.6786 -3.0953,12.2299 -2.1104,2.5512 -4.7836,4.1306 -8.0665,4.738 -3.3298,0.6075 -9.6143,0.9314 -18.9471,0.9314 l -13.9758,0 z m 19.7443,-11.2174 c 4.5492,0 6.0031,-0.8909 6.0031,-5.062 l 0,-3.6042 c 0,-5.791 -1.5477,-5.9124 -6.0031,-5.9124 l 0,14.5786 z m 71.7532,11.2174 -43.1468,0 0,-13.1207 11.6778,0 0,-52.4426 19.7443,0 0,52.4426 11.7247,0 0,13.1207 z m 49.3827,0 -19.7444,0 0,-48.3119 c 0,-6.5199 -0.4689,-7.5323 -2.9545,-7.5323 -2.2043,0 -2.7202,0.9719 -2.7202,6.6819 l 0,49.1623 -19.7443,0 0,-38.7953 c 0,-7.4108 0.1407,-12.2299 0.469,-14.5381 0.3283,-2.3083 1.3132,-4.5356 3.0484,-6.6009 1.7352,-2.0653 4.3147,-3.7662 7.7852,-5.062 3.4705,-1.2959 7.4568,-1.9438 12.006,-1.9438 4.0802,0 7.6445,0.5264 10.6929,1.6603 3.0015,1.0934 5.4402,2.6727 7.2693,4.819 1.829,2.1058 2.9546,4.1711 3.3298,6.1959 0.3752,1.9844 0.5628,5.467 0.5628,10.4481 l 0,43.8168 z m 7.6425,0 0,-65.5633 19.7443,0 0,26.4035 5.2996,0 c 4.3147,0 7.8321,0.5265 10.5053,1.5389 2.6732,1.0124 4.5023,2.5107 5.4871,4.4141 0.9849,1.9033 1.5008,4.981 1.5008,9.1521 l 0,5.71 c 0,4.0901 -0.2345,7.1273 -0.7504,9.1116 -0.5159,1.9438 -1.5007,3.6042 -2.9546,4.981 -1.4539,1.3769 -3.6581,2.4298 -6.5189,3.1587 -2.9077,0.729 -7.0348,1.0934 -12.4281,1.0934 l -19.8851,0 z m 19.7443,-11.2174 c 5.112,0 6.2845,-0.8909 6.2845,-5.386 l 0,-5.386 c 0,-4.8595 -1.2194,-5.9529 -4.8306,-5.9529 -0.4221,0 -0.8911,0 -1.4539,0.0405 l 0,16.6844 z m 92.3928,-12.9183 0,2.8347 c 0,5.386 -0.5628,9.4761 -1.7352,12.3109 -1.1725,2.7942 -3.6581,5.224 -7.4569,7.2893 -3.7988,2.0653 -8.6294,3.0777 -14.3979,3.0777 -5.8623,0 -10.646,-1.1744 -14.351,-3.5231 -3.705,-2.3893 -5.9561,-4.9811 -6.7534,-7.8158 -0.7973,-2.8347 -1.1725,-7.3703 -1.1725,-13.6472 l 0,-19.4787 c 0,-4.4951 0.1876,-7.8968 0.5628,-10.124 0.3752,-2.2678 1.3132,-4.4141 2.814,-6.4794 1.5007,-2.0653 3.7049,-3.7662 6.6127,-5.143 2.8608,-1.4174 5.9561,-2.1058 9.2859,-2.1058 5.5809,0 9.6611,2.0248 12.3343,6.0744 l 1.8291,-4.6976 12.4281,0 0,35.1912 -23.121,0 0,-9.9621 3.9864,0 0,-7.7752 c 0,-6.115 -0.8442,-7.7348 -3.705,-7.7348 -2.6263,0 -3.2829,1.3364 -3.2829,7.2083 l 0,31.4656 c 0,6.6818 0.7035,7.4513 3.1422,7.4513 2.8139,0 3.236,-0.972 3.236,-8.4638 l 0,-5.9529 19.7443,0 z m 52.5248,24.1357 -19.7443,0 0,-48.3119 c 0,-6.5199 -0.469,-7.5323 -2.9546,-7.5323 -2.2043,0 -2.7201,0.9719 -2.7201,6.6819 l 0,49.1623 -19.7444,0 0,-38.7953 c 0,-7.4108 0.1407,-12.2299 0.469,-14.5381 0.3283,-2.3083 1.3132,-4.5356 3.0484,-6.6009 1.7353,-2.0653 4.3147,-3.7662 7.7852,-5.062 3.4705,-1.2959 7.4569,-1.9438 12.0061,-1.9438 4.0801,0 7.6444,0.5264 10.6928,1.6603 3.0016,1.0934 5.4403,2.6727 7.2693,4.819 1.8291,2.1058 2.9547,4.1711 3.3298,6.1959 0.3752,1.9844 0.5628,5.467 0.5628,10.4481 l 0,43.8168 z m 27.3869,0 -19.7443,0 0,-65.5633 19.7443,0 0,65.5633 z m 7.925,0 0,-65.5633 24.9032,0 c 4.7367,0 8.2541,0.243 10.599,0.6885 2.345,0.4454 4.3147,1.2148 5.9093,2.3487 1.5945,1.0934 2.7201,2.6728 3.3767,4.6571 0.6097,1.9843 0.938,5.9124 0.938,11.7844 l 0,22.9613 c 0,6.1959 -0.2345,10.367 -0.6567,12.5133 -0.422,2.1059 -1.5476,4.0091 -3.2828,5.7505 -1.7353,1.7413 -4.3147,2.9562 -7.6445,3.7256 -3.3767,0.7695 -9.8487,1.1339 -19.3692,1.1339 l -14.773,0 z m 19.7443,-11.2174 c 2.1573,0 3.6112,-0.2025 4.4085,-0.567 0.7972,-0.4049 1.2662,-1.0123 1.5007,-1.8628 0.2345,-0.8504 0.3283,-2.7537 0.3283,-5.7099 l 0,-25.4721 c 0,-8.7472 -0.5628,-9.5167 -6.2375,-9.5167 l 0,43.1285 z m 33.3431,11.2174 0,-65.5633 34.236,0 0,13.1208 -14.4917,0 0,14.4166 12.3343,0 0,12.4728 -12.3343,0 0,12.4324 13.1785,0 0,13.1207"
         id="path2244"
         inkscape:connector-curvature="0" /></clipPath><clipPath
       clipPathUnits="userSpaceOnUse"
       id="clipPath2250"><path
         d="m 584.958,324.2696 -59.652,0 -2.625,5.597 -51.623,-5.597 -47.312,0 161.212,17.479"
         clip-rule="evenodd"
         id="path2252"
         inkscape:connector-curvature="0" /></clipPath><clipPath
       clipPathUnits="userSpaceOnUse"
       id="clipPath2262"><path
         d="m 52.0439,369.34 0,2.5918 c 0,5.224 -0.5628,8.9091 -1.7352,11.0959 -1.1725,2.1463 -3.5643,3.9686 -7.1755,5.386 -3.6112,1.4174 -8.0197,2.1463 -13.1316,2.1463 -4.6899,0 -8.6763,-0.648 -12.0061,-1.9438 -3.3298,-1.3364 -5.7216,-3.1587 -7.1755,-5.467 -1.5007,-2.3083 -2.2511,-5.9934 -2.2511,-11.015 0,-3.4826 0.5159,-6.3579 1.5945,-8.5852 1.0318,-2.2273 2.345,-4.0091 3.9395,-5.2645 1.5946,-1.2553 4.8306,-3.3206 9.7549,-6.1149 4.9244,-2.7942 7.9728,-4.7785 9.2391,-5.9529 1.2193,-1.1744 1.829,-3.7257 1.829,-7.5728 0,-3.5232 -1.2662,-5.305 -3.8926,-5.305 -2.6263,0 -3.5174,0.8909 -3.5174,5.791 l 0,7.9777 -18.3373,0 0,-4.2926 c 0,-4.9 0.5628,-8.7067 1.7352,-11.3794 1.1725,-2.6728 3.6112,-4.8596 7.3631,-6.6009 3.705,-1.7413 8.2073,-2.5917 13.5068,-2.5917 4.8306,0 9.0514,0.7289 12.6626,2.2677 3.6112,1.4984 6.0969,3.3207 7.3631,5.548 1.2663,2.2273 1.876,5.6695 1.876,10.3265 0,6.4389 -1.1256,11.096 -3.4236,13.9712 -2.2981,2.8753 -7.8321,6.6009 -16.6021,11.096 -3.0485,1.5793 -4.9244,2.9157 -5.581,4.0091 -0.7035,1.0934 -1.0318,2.7537 -1.0318,4.9405 0,3.4017 1.2194,5.0621 3.6112,5.0621 2.2043,0 3.0485,-0.729 3.0485,-5.2646 l 0,-4.8595 18.3373,0 z m 47.6002,19.8431 -43.1468,0 0,-13.1207 11.6778,0 0,-52.4426 19.7443,0 0,52.4426 11.7247,0 0,13.1207 z m 34.7519,0 -28.5613,0 -10.0363,-65.5633 20.4478,0 1.1725,11.7844 7.0817,0 0.9848,-11.7844 20.2133,0 -11.3025,65.5633 z m -10.4584,-42.1565 -6.7534,0 c 0.5159,5.791 1.7352,14.9836 3.7519,27.4969 0.9848,-10.8935 2.0166,-20.0861 3.0015,-27.4969 z m 25.136,42.1565 0,-65.5633 19.7443,0 0,29.5622 c 5.4403,0 6.0031,-0.7694 6.0031,-7.7752 l 0,-21.787 18.3373,0 0,17.2919 c 0,5.305 -0.1407,8.5447 -0.469,9.7191 -0.3282,1.1743 -1.1724,2.4297 -2.5325,3.8471 -1.36,1.4174 -3.9864,2.5108 -7.879,3.3612 8.6294,0.6884 10.8805,3.2397 10.8805,13.4447 0,5.5885 -1.0317,9.6786 -3.0953,12.2299 -2.1104,2.5512 -4.7836,4.1306 -8.0665,4.738 -3.3298,0.6075 -9.6143,0.9314 -18.9471,0.9314 l -13.9758,0 z m 19.7443,-11.2174 c 4.5492,0 6.0031,-0.8909 6.0031,-5.062 l 0,-3.6042 c 0,-5.791 -1.5477,-5.9124 -6.0031,-5.9124 l 0,14.5786 z m 71.7532,11.2174 -43.1468,0 0,-13.1207 11.6778,0 0,-52.4426 19.7443,0 0,52.4426 11.7247,0 0,13.1207 z m 49.3827,0 -19.7444,0 0,-48.3119 c 0,-6.5199 -0.4689,-7.5323 -2.9545,-7.5323 -2.2043,0 -2.7202,0.9719 -2.7202,6.6819 l 0,49.1623 -19.7443,0 0,-38.7953 c 0,-7.4108 0.1407,-12.2299 0.469,-14.5381 0.3283,-2.3083 1.3132,-4.5356 3.0484,-6.6009 1.7352,-2.0653 4.3147,-3.7662 7.7852,-5.062 3.4705,-1.2959 7.4568,-1.9438 12.006,-1.9438 4.0802,0 7.6445,0.5264 10.6929,1.6603 3.0015,1.0934 5.4402,2.6727 7.2693,4.819 1.829,2.1058 2.9546,4.1711 3.3298,6.1959 0.3752,1.9844 0.5628,5.467 0.5628,10.4481 l 0,43.8168 z m 7.6425,0 0,-65.5633 19.7443,0 0,26.4035 5.2996,0 c 4.3147,0 7.8321,0.5265 10.5053,1.5389 2.6732,1.0124 4.5023,2.5107 5.4871,4.4141 0.9849,1.9033 1.5008,4.981 1.5008,9.1521 l 0,5.71 c 0,4.0901 -0.2345,7.1273 -0.7504,9.1116 -0.5159,1.9438 -1.5007,3.6042 -2.9546,4.981 -1.4539,1.3769 -3.6581,2.4298 -6.5189,3.1587 -2.9077,0.729 -7.0348,1.0934 -12.4281,1.0934 l -19.8851,0 z m 19.7443,-11.2174 c 5.112,0 6.2845,-0.8909 6.2845,-5.386 l 0,-5.386 c 0,-4.8595 -1.2194,-5.9529 -4.8306,-5.9529 -0.4221,0 -0.8911,0 -1.4539,0.0405 l 0,16.6844 z m 92.3928,-12.9183 0,2.8347 c 0,5.386 -0.5628,9.4761 -1.7352,12.3109 -1.1725,2.7942 -3.6581,5.224 -7.4569,7.2893 -3.7988,2.0653 -8.6294,3.0777 -14.3979,3.0777 -5.8623,0 -10.646,-1.1744 -14.351,-3.5231 -3.705,-2.3893 -5.9561,-4.9811 -6.7534,-7.8158 -0.7973,-2.8347 -1.1725,-7.3703 -1.1725,-13.6472 l 0,-19.4787 c 0,-4.4951 0.1876,-7.8968 0.5628,-10.124 0.3752,-2.2678 1.3132,-4.4141 2.814,-6.4794 1.5007,-2.0653 3.7049,-3.7662 6.6127,-5.143 2.8608,-1.4174 5.9561,-2.1058 9.2859,-2.1058 5.5809,0 9.6611,2.0248 12.3343,6.0744 l 1.8291,-4.6976 12.4281,0 0,35.1912 -23.121,0 0,-9.9621 3.9864,0 0,-7.7752 c 0,-6.115 -0.8442,-7.7348 -3.705,-7.7348 -2.6263,0 -3.2829,1.3364 -3.2829,7.2083 l 0,31.4656 c 0,6.6818 0.7035,7.4513 3.1422,7.4513 2.8139,0 3.236,-0.972 3.236,-8.4638 l 0,-5.9529 19.7443,0 z m 52.5248,24.1357 -19.7443,0 0,-48.3119 c 0,-6.5199 -0.469,-7.5323 -2.9546,-7.5323 -2.2043,0 -2.7201,0.9719 -2.7201,6.6819 l 0,49.1623 -19.7444,0 0,-38.7953 c 0,-7.4108 0.1407,-12.2299 0.469,-14.5381 0.3283,-2.3083 1.3132,-4.5356 3.0484,-6.6009 1.7353,-2.0653 4.3147,-3.7662 7.7852,-5.062 3.4705,-1.2959 7.4569,-1.9438 12.0061,-1.9438 4.0801,0 7.6444,0.5264 10.6928,1.6603 3.0016,1.0934 5.4403,2.6727 7.2693,4.819 1.8291,2.1058 2.9547,4.1711 3.3298,6.1959 0.3752,1.9844 0.5628,5.467 0.5628,10.4481 l 0,43.8168 z m 27.3869,0 -19.7443,0 0,-65.5633 19.7443,0 0,65.5633 z m 7.925,0 0,-65.5633 24.9032,0 c 4.7367,0 8.2541,0.243 10.599,0.6885 2.345,0.4454 4.3147,1.2148 5.9093,2.3487 1.5945,1.0934 2.7201,2.6728 3.3767,4.6571 0.6097,1.9843 0.938,5.9124 0.938,11.7844 l 0,22.9613 c 0,6.1959 -0.2345,10.367 -0.6567,12.5133 -0.422,2.1059 -1.5476,4.0091 -3.2828,5.7505 -1.7353,1.7413 -4.3147,2.9562 -7.6445,3.7256 -3.3767,0.7695 -9.8487,1.1339 -19.3692,1.1339 l -14.773,0 z m 19.7443,-11.2174 c 2.1573,0 3.6112,-0.2025 4.4085,-0.567 0.7972,-0.4049 1.2662,-1.0123 1.5007,-1.8628 0.2345,-0.8504 0.3283,-2.7537 0.3283,-5.7099 l 0,-25.4721 c 0,-8.7472 -0.5628,-9.5167 -6.2375,-9.5167 l 0,43.1285 z m 33.3431,11.2174 0,-65.5633 34.236,0 0,13.1208 -14.4917,0 0,14.4166 12.3343,0 0,12.4728 -12.3343,0 0,12.4324 13.1785,0 0,13.1207"
         id="path2264"
         inkscape:connector-curvature="0" /></clipPath><clipPath
       clipPathUnits="userSpaceOnUse"
       id="clipPath2270"><path
         d="m 584.958,322.2436 -58.701,0 -0.951,2.026 59.652,0"
         clip-rule="evenodd"
         id="path2272"
         inkscape:connector-curvature="0" /></clipPath><clipPath
       clipPathUnits="userSpaceOnUse"
       id="clipPath2282"><path
         d="m 52.0439,369.34 0,2.5918 c 0,5.224 -0.5628,8.9091 -1.7352,11.0959 -1.1725,2.1463 -3.5643,3.9686 -7.1755,5.386 -3.6112,1.4174 -8.0197,2.1463 -13.1316,2.1463 -4.6899,0 -8.6763,-0.648 -12.0061,-1.9438 -3.3298,-1.3364 -5.7216,-3.1587 -7.1755,-5.467 -1.5007,-2.3083 -2.2511,-5.9934 -2.2511,-11.015 0,-3.4826 0.5159,-6.3579 1.5945,-8.5852 1.0318,-2.2273 2.345,-4.0091 3.9395,-5.2645 1.5946,-1.2553 4.8306,-3.3206 9.7549,-6.1149 4.9244,-2.7942 7.9728,-4.7785 9.2391,-5.9529 1.2193,-1.1744 1.829,-3.7257 1.829,-7.5728 0,-3.5232 -1.2662,-5.305 -3.8926,-5.305 -2.6263,0 -3.5174,0.8909 -3.5174,5.791 l 0,7.9777 -18.3373,0 0,-4.2926 c 0,-4.9 0.5628,-8.7067 1.7352,-11.3794 1.1725,-2.6728 3.6112,-4.8596 7.3631,-6.6009 3.705,-1.7413 8.2073,-2.5917 13.5068,-2.5917 4.8306,0 9.0514,0.7289 12.6626,2.2677 3.6112,1.4984 6.0969,3.3207 7.3631,5.548 1.2663,2.2273 1.876,5.6695 1.876,10.3265 0,6.4389 -1.1256,11.096 -3.4236,13.9712 -2.2981,2.8753 -7.8321,6.6009 -16.6021,11.096 -3.0485,1.5793 -4.9244,2.9157 -5.581,4.0091 -0.7035,1.0934 -1.0318,2.7537 -1.0318,4.9405 0,3.4017 1.2194,5.0621 3.6112,5.0621 2.2043,0 3.0485,-0.729 3.0485,-5.2646 l 0,-4.8595 18.3373,0 z m 47.6002,19.8431 -43.1468,0 0,-13.1207 11.6778,0 0,-52.4426 19.7443,0 0,52.4426 11.7247,0 0,13.1207 z m 34.7519,0 -28.5613,0 -10.0363,-65.5633 20.4478,0 1.1725,11.7844 7.0817,0 0.9848,-11.7844 20.2133,0 -11.3025,65.5633 z m -10.4584,-42.1565 -6.7534,0 c 0.5159,5.791 1.7352,14.9836 3.7519,27.4969 0.9848,-10.8935 2.0166,-20.0861 3.0015,-27.4969 z m 25.136,42.1565 0,-65.5633 19.7443,0 0,29.5622 c 5.4403,0 6.0031,-0.7694 6.0031,-7.7752 l 0,-21.787 18.3373,0 0,17.2919 c 0,5.305 -0.1407,8.5447 -0.469,9.7191 -0.3282,1.1743 -1.1724,2.4297 -2.5325,3.8471 -1.36,1.4174 -3.9864,2.5108 -7.879,3.3612 8.6294,0.6884 10.8805,3.2397 10.8805,13.4447 0,5.5885 -1.0317,9.6786 -3.0953,12.2299 -2.1104,2.5512 -4.7836,4.1306 -8.0665,4.738 -3.3298,0.6075 -9.6143,0.9314 -18.9471,0.9314 l -13.9758,0 z m 19.7443,-11.2174 c 4.5492,0 6.0031,-0.8909 6.0031,-5.062 l 0,-3.6042 c 0,-5.791 -1.5477,-5.9124 -6.0031,-5.9124 l 0,14.5786 z m 71.7532,11.2174 -43.1468,0 0,-13.1207 11.6778,0 0,-52.4426 19.7443,0 0,52.4426 11.7247,0 0,13.1207 z m 49.3827,0 -19.7444,0 0,-48.3119 c 0,-6.5199 -0.4689,-7.5323 -2.9545,-7.5323 -2.2043,0 -2.7202,0.9719 -2.7202,6.6819 l 0,49.1623 -19.7443,0 0,-38.7953 c 0,-7.4108 0.1407,-12.2299 0.469,-14.5381 0.3283,-2.3083 1.3132,-4.5356 3.0484,-6.6009 1.7352,-2.0653 4.3147,-3.7662 7.7852,-5.062 3.4705,-1.2959 7.4568,-1.9438 12.006,-1.9438 4.0802,0 7.6445,0.5264 10.6929,1.6603 3.0015,1.0934 5.4402,2.6727 7.2693,4.819 1.829,2.1058 2.9546,4.1711 3.3298,6.1959 0.3752,1.9844 0.5628,5.467 0.5628,10.4481 l 0,43.8168 z m 7.6425,0 0,-65.5633 19.7443,0 0,26.4035 5.2996,0 c 4.3147,0 7.8321,0.5265 10.5053,1.5389 2.6732,1.0124 4.5023,2.5107 5.4871,4.4141 0.9849,1.9033 1.5008,4.981 1.5008,9.1521 l 0,5.71 c 0,4.0901 -0.2345,7.1273 -0.7504,9.1116 -0.5159,1.9438 -1.5007,3.6042 -2.9546,4.981 -1.4539,1.3769 -3.6581,2.4298 -6.5189,3.1587 -2.9077,0.729 -7.0348,1.0934 -12.4281,1.0934 l -19.8851,0 z m 19.7443,-11.2174 c 5.112,0 6.2845,-0.8909 6.2845,-5.386 l 0,-5.386 c 0,-4.8595 -1.2194,-5.9529 -4.8306,-5.9529 -0.4221,0 -0.8911,0 -1.4539,0.0405 l 0,16.6844 z m 92.3928,-12.9183 0,2.8347 c 0,5.386 -0.5628,9.4761 -1.7352,12.3109 -1.1725,2.7942 -3.6581,5.224 -7.4569,7.2893 -3.7988,2.0653 -8.6294,3.0777 -14.3979,3.0777 -5.8623,0 -10.646,-1.1744 -14.351,-3.5231 -3.705,-2.3893 -5.9561,-4.9811 -6.7534,-7.8158 -0.7973,-2.8347 -1.1725,-7.3703 -1.1725,-13.6472 l 0,-19.4787 c 0,-4.4951 0.1876,-7.8968 0.5628,-10.124 0.3752,-2.2678 1.3132,-4.4141 2.814,-6.4794 1.5007,-2.0653 3.7049,-3.7662 6.6127,-5.143 2.8608,-1.4174 5.9561,-2.1058 9.2859,-2.1058 5.5809,0 9.6611,2.0248 12.3343,6.0744 l 1.8291,-4.6976 12.4281,0 0,35.1912 -23.121,0 0,-9.9621 3.9864,0 0,-7.7752 c 0,-6.115 -0.8442,-7.7348 -3.705,-7.7348 -2.6263,0 -3.2829,1.3364 -3.2829,7.2083 l 0,31.4656 c 0,6.6818 0.7035,7.4513 3.1422,7.4513 2.8139,0 3.236,-0.972 3.236,-8.4638 l 0,-5.9529 19.7443,0 z m 52.5248,24.1357 -19.7443,0 0,-48.3119 c 0,-6.5199 -0.469,-7.5323 -2.9546,-7.5323 -2.2043,0 -2.7201,0.9719 -2.7201,6.6819 l 0,49.1623 -19.7444,0 0,-38.7953 c 0,-7.4108 0.1407,-12.2299 0.469,-14.5381 0.3283,-2.3083 1.3132,-4.5356 3.0484,-6.6009 1.7353,-2.0653 4.3147,-3.7662 7.7852,-5.062 3.4705,-1.2959 7.4569,-1.9438 12.0061,-1.9438 4.0801,0 7.6444,0.5264 10.6928,1.6603 3.0016,1.0934 5.4403,2.6727 7.2693,4.819 1.8291,2.1058 2.9547,4.1711 3.3298,6.1959 0.3752,1.9844 0.5628,5.467 0.5628,10.4481 l 0,43.8168 z m 27.3869,0 -19.7443,0 0,-65.5633 19.7443,0 0,65.5633 z m 7.925,0 0,-65.5633 24.9032,0 c 4.7367,0 8.2541,0.243 10.599,0.6885 2.345,0.4454 4.3147,1.2148 5.9093,2.3487 1.5945,1.0934 2.7201,2.6728 3.3767,4.6571 0.6097,1.9843 0.938,5.9124 0.938,11.7844 l 0,22.9613 c 0,6.1959 -0.2345,10.367 -0.6567,12.5133 -0.422,2.1059 -1.5476,4.0091 -3.2828,5.7505 -1.7353,1.7413 -4.3147,2.9562 -7.6445,3.7256 -3.3767,0.7695 -9.8487,1.1339 -19.3692,1.1339 l -14.773,0 z m 19.7443,-11.2174 c 2.1573,0 3.6112,-0.2025 4.4085,-0.567 0.7972,-0.4049 1.2662,-1.0123 1.5007,-1.8628 0.2345,-0.8504 0.3283,-2.7537 0.3283,-5.7099 l 0,-25.4721 c 0,-8.7472 -0.5628,-9.5167 -6.2375,-9.5167 l 0,43.1285 z m 33.3431,11.2174 0,-65.5633 34.236,0 0,13.1208 -14.4917,0 0,14.4166 12.3343,0 0,12.4728 -12.3343,0 0,12.4324 13.1785,0 0,13.1207"
         id="path2284"
         inkscape:connector-curvature="0" /></clipPath><clipPath
       clipPathUnits="userSpaceOnUse"
       id="clipPath2290"><path
         d="m 471.058,324.2696 -18.6911,-2.026 -47.3118,0 18.6909,2.026"
         clip-rule="evenodd"
         id="path2292"
         inkscape:connector-curvature="0" /></clipPath><clipPath
       clipPathUnits="userSpaceOnUse"
       id="clipPath2302"><path
         d="m 52.0439,369.34 0,2.5918 c 0,5.224 -0.5628,8.9091 -1.7352,11.0959 -1.1725,2.1463 -3.5643,3.9686 -7.1755,5.386 -3.6112,1.4174 -8.0197,2.1463 -13.1316,2.1463 -4.6899,0 -8.6763,-0.648 -12.0061,-1.9438 -3.3298,-1.3364 -5.7216,-3.1587 -7.1755,-5.467 -1.5007,-2.3083 -2.2511,-5.9934 -2.2511,-11.015 0,-3.4826 0.5159,-6.3579 1.5945,-8.5852 1.0318,-2.2273 2.345,-4.0091 3.9395,-5.2645 1.5946,-1.2553 4.8306,-3.3206 9.7549,-6.1149 4.9244,-2.7942 7.9728,-4.7785 9.2391,-5.9529 1.2193,-1.1744 1.829,-3.7257 1.829,-7.5728 0,-3.5232 -1.2662,-5.305 -3.8926,-5.305 -2.6263,0 -3.5174,0.8909 -3.5174,5.791 l 0,7.9777 -18.3373,0 0,-4.2926 c 0,-4.9 0.5628,-8.7067 1.7352,-11.3794 1.1725,-2.6728 3.6112,-4.8596 7.3631,-6.6009 3.705,-1.7413 8.2073,-2.5917 13.5068,-2.5917 4.8306,0 9.0514,0.7289 12.6626,2.2677 3.6112,1.4984 6.0969,3.3207 7.3631,5.548 1.2663,2.2273 1.876,5.6695 1.876,10.3265 0,6.4389 -1.1256,11.096 -3.4236,13.9712 -2.2981,2.8753 -7.8321,6.6009 -16.6021,11.096 -3.0485,1.5793 -4.9244,2.9157 -5.581,4.0091 -0.7035,1.0934 -1.0318,2.7537 -1.0318,4.9405 0,3.4017 1.2194,5.0621 3.6112,5.0621 2.2043,0 3.0485,-0.729 3.0485,-5.2646 l 0,-4.8595 18.3373,0 z m 47.6002,19.8431 -43.1468,0 0,-13.1207 11.6778,0 0,-52.4426 19.7443,0 0,52.4426 11.7247,0 0,13.1207 z m 34.7519,0 -28.5613,0 -10.0363,-65.5633 20.4478,0 1.1725,11.7844 7.0817,0 0.9848,-11.7844 20.2133,0 -11.3025,65.5633 z m -10.4584,-42.1565 -6.7534,0 c 0.5159,5.791 1.7352,14.9836 3.7519,27.4969 0.9848,-10.8935 2.0166,-20.0861 3.0015,-27.4969 z m 25.136,42.1565 0,-65.5633 19.7443,0 0,29.5622 c 5.4403,0 6.0031,-0.7694 6.0031,-7.7752 l 0,-21.787 18.3373,0 0,17.2919 c 0,5.305 -0.1407,8.5447 -0.469,9.7191 -0.3282,1.1743 -1.1724,2.4297 -2.5325,3.8471 -1.36,1.4174 -3.9864,2.5108 -7.879,3.3612 8.6294,0.6884 10.8805,3.2397 10.8805,13.4447 0,5.5885 -1.0317,9.6786 -3.0953,12.2299 -2.1104,2.5512 -4.7836,4.1306 -8.0665,4.738 -3.3298,0.6075 -9.6143,0.9314 -18.9471,0.9314 l -13.9758,0 z m 19.7443,-11.2174 c 4.5492,0 6.0031,-0.8909 6.0031,-5.062 l 0,-3.6042 c 0,-5.791 -1.5477,-5.9124 -6.0031,-5.9124 l 0,14.5786 z m 71.7532,11.2174 -43.1468,0 0,-13.1207 11.6778,0 0,-52.4426 19.7443,0 0,52.4426 11.7247,0 0,13.1207 z m 49.3827,0 -19.7444,0 0,-48.3119 c 0,-6.5199 -0.4689,-7.5323 -2.9545,-7.5323 -2.2043,0 -2.7202,0.9719 -2.7202,6.6819 l 0,49.1623 -19.7443,0 0,-38.7953 c 0,-7.4108 0.1407,-12.2299 0.469,-14.5381 0.3283,-2.3083 1.3132,-4.5356 3.0484,-6.6009 1.7352,-2.0653 4.3147,-3.7662 7.7852,-5.062 3.4705,-1.2959 7.4568,-1.9438 12.006,-1.9438 4.0802,0 7.6445,0.5264 10.6929,1.6603 3.0015,1.0934 5.4402,2.6727 7.2693,4.819 1.829,2.1058 2.9546,4.1711 3.3298,6.1959 0.3752,1.9844 0.5628,5.467 0.5628,10.4481 l 0,43.8168 z m 7.6425,0 0,-65.5633 19.7443,0 0,26.4035 5.2996,0 c 4.3147,0 7.8321,0.5265 10.5053,1.5389 2.6732,1.0124 4.5023,2.5107 5.4871,4.4141 0.9849,1.9033 1.5008,4.981 1.5008,9.1521 l 0,5.71 c 0,4.0901 -0.2345,7.1273 -0.7504,9.1116 -0.5159,1.9438 -1.5007,3.6042 -2.9546,4.981 -1.4539,1.3769 -3.6581,2.4298 -6.5189,3.1587 -2.9077,0.729 -7.0348,1.0934 -12.4281,1.0934 l -19.8851,0 z m 19.7443,-11.2174 c 5.112,0 6.2845,-0.8909 6.2845,-5.386 l 0,-5.386 c 0,-4.8595 -1.2194,-5.9529 -4.8306,-5.9529 -0.4221,0 -0.8911,0 -1.4539,0.0405 l 0,16.6844 z m 92.3928,-12.9183 0,2.8347 c 0,5.386 -0.5628,9.4761 -1.7352,12.3109 -1.1725,2.7942 -3.6581,5.224 -7.4569,7.2893 -3.7988,2.0653 -8.6294,3.0777 -14.3979,3.0777 -5.8623,0 -10.646,-1.1744 -14.351,-3.5231 -3.705,-2.3893 -5.9561,-4.9811 -6.7534,-7.8158 -0.7973,-2.8347 -1.1725,-7.3703 -1.1725,-13.6472 l 0,-19.4787 c 0,-4.4951 0.1876,-7.8968 0.5628,-10.124 0.3752,-2.2678 1.3132,-4.4141 2.814,-6.4794 1.5007,-2.0653 3.7049,-3.7662 6.6127,-5.143 2.8608,-1.4174 5.9561,-2.1058 9.2859,-2.1058 5.5809,0 9.6611,2.0248 12.3343,6.0744 l 1.8291,-4.6976 12.4281,0 0,35.1912 -23.121,0 0,-9.9621 3.9864,0 0,-7.7752 c 0,-6.115 -0.8442,-7.7348 -3.705,-7.7348 -2.6263,0 -3.2829,1.3364 -3.2829,7.2083 l 0,31.4656 c 0,6.6818 0.7035,7.4513 3.1422,7.4513 2.8139,0 3.236,-0.972 3.236,-8.4638 l 0,-5.9529 19.7443,0 z m 52.5248,24.1357 -19.7443,0 0,-48.3119 c 0,-6.5199 -0.469,-7.5323 -2.9546,-7.5323 -2.2043,0 -2.7201,0.9719 -2.7201,6.6819 l 0,49.1623 -19.7444,0 0,-38.7953 c 0,-7.4108 0.1407,-12.2299 0.469,-14.5381 0.3283,-2.3083 1.3132,-4.5356 3.0484,-6.6009 1.7353,-2.0653 4.3147,-3.7662 7.7852,-5.062 3.4705,-1.2959 7.4569,-1.9438 12.0061,-1.9438 4.0801,0 7.6444,0.5264 10.6928,1.6603 3.0016,1.0934 5.4403,2.6727 7.2693,4.819 1.8291,2.1058 2.9547,4.1711 3.3298,6.1959 0.3752,1.9844 0.5628,5.467 0.5628,10.4481 l 0,43.8168 z m 27.3869,0 -19.7443,0 0,-65.5633 19.7443,0 0,65.5633 z m 7.925,0 0,-65.5633 24.9032,0 c 4.7367,0 8.2541,0.243 10.599,0.6885 2.345,0.4454 4.3147,1.2148 5.9093,2.3487 1.5945,1.0934 2.7201,2.6728 3.3767,4.6571 0.6097,1.9843 0.938,5.9124 0.938,11.7844 l 0,22.9613 c 0,6.1959 -0.2345,10.367 -0.6567,12.5133 -0.422,2.1059 -1.5476,4.0091 -3.2828,5.7505 -1.7353,1.7413 -4.3147,2.9562 -7.6445,3.7256 -3.3767,0.7695 -9.8487,1.1339 -19.3692,1.1339 l -14.773,0 z m 19.7443,-11.2174 c 2.1573,0 3.6112,-0.2025 4.4085,-0.567 0.7972,-0.4049 1.2662,-1.0123 1.5007,-1.8628 0.2345,-0.8504 0.3283,-2.7537 0.3283,-5.7099 l 0,-25.4721 c 0,-8.7472 -0.5628,-9.5167 -6.2375,-9.5167 l 0,43.1285 z m 33.3431,11.2174 0,-65.5633 34.236,0 0,13.1208 -14.4917,0 0,14.4166 12.3343,0 0,12.4728 -12.3343,0 0,12.4324 13.1785,0 0,13.1207"
         id="path2304"
         inkscape:connector-curvature="0" /></clipPath><clipPath
       clipPathUnits="userSpaceOnUse"
       id="clipPath2310"><path
         d="m 525.306,324.2696 0.951,-2.026 -73.8901,0 18.6911,2.026"
         clip-rule="evenodd"
         id="path2312"
         inkscape:connector-curvature="0" /></clipPath><clipPath
       clipPathUnits="userSpaceOnUse"
       id="clipPath2322"><path
         d="m 52.0439,369.34 0,2.5918 c 0,5.224 -0.5628,8.9091 -1.7352,11.0959 -1.1725,2.1463 -3.5643,3.9686 -7.1755,5.386 -3.6112,1.4174 -8.0197,2.1463 -13.1316,2.1463 -4.6899,0 -8.6763,-0.648 -12.0061,-1.9438 -3.3298,-1.3364 -5.7216,-3.1587 -7.1755,-5.467 -1.5007,-2.3083 -2.2511,-5.9934 -2.2511,-11.015 0,-3.4826 0.5159,-6.3579 1.5945,-8.5852 1.0318,-2.2273 2.345,-4.0091 3.9395,-5.2645 1.5946,-1.2553 4.8306,-3.3206 9.7549,-6.1149 4.9244,-2.7942 7.9728,-4.7785 9.2391,-5.9529 1.2193,-1.1744 1.829,-3.7257 1.829,-7.5728 0,-3.5232 -1.2662,-5.305 -3.8926,-5.305 -2.6263,0 -3.5174,0.8909 -3.5174,5.791 l 0,7.9777 -18.3373,0 0,-4.2926 c 0,-4.9 0.5628,-8.7067 1.7352,-11.3794 1.1725,-2.6728 3.6112,-4.8596 7.3631,-6.6009 3.705,-1.7413 8.2073,-2.5917 13.5068,-2.5917 4.8306,0 9.0514,0.7289 12.6626,2.2677 3.6112,1.4984 6.0969,3.3207 7.3631,5.548 1.2663,2.2273 1.876,5.6695 1.876,10.3265 0,6.4389 -1.1256,11.096 -3.4236,13.9712 -2.2981,2.8753 -7.8321,6.6009 -16.6021,11.096 -3.0485,1.5793 -4.9244,2.9157 -5.581,4.0091 -0.7035,1.0934 -1.0318,2.7537 -1.0318,4.9405 0,3.4017 1.2194,5.0621 3.6112,5.0621 2.2043,0 3.0485,-0.729 3.0485,-5.2646 l 0,-4.8595 18.3373,0 z m 47.6002,19.8431 -43.1468,0 0,-13.1207 11.6778,0 0,-52.4426 19.7443,0 0,52.4426 11.7247,0 0,13.1207 z m 34.7519,0 -28.5613,0 -10.0363,-65.5633 20.4478,0 1.1725,11.7844 7.0817,0 0.9848,-11.7844 20.2133,0 -11.3025,65.5633 z m -10.4584,-42.1565 -6.7534,0 c 0.5159,5.791 1.7352,14.9836 3.7519,27.4969 0.9848,-10.8935 2.0166,-20.0861 3.0015,-27.4969 z m 25.136,42.1565 0,-65.5633 19.7443,0 0,29.5622 c 5.4403,0 6.0031,-0.7694 6.0031,-7.7752 l 0,-21.787 18.3373,0 0,17.2919 c 0,5.305 -0.1407,8.5447 -0.469,9.7191 -0.3282,1.1743 -1.1724,2.4297 -2.5325,3.8471 -1.36,1.4174 -3.9864,2.5108 -7.879,3.3612 8.6294,0.6884 10.8805,3.2397 10.8805,13.4447 0,5.5885 -1.0317,9.6786 -3.0953,12.2299 -2.1104,2.5512 -4.7836,4.1306 -8.0665,4.738 -3.3298,0.6075 -9.6143,0.9314 -18.9471,0.9314 l -13.9758,0 z m 19.7443,-11.2174 c 4.5492,0 6.0031,-0.8909 6.0031,-5.062 l 0,-3.6042 c 0,-5.791 -1.5477,-5.9124 -6.0031,-5.9124 l 0,14.5786 z m 71.7532,11.2174 -43.1468,0 0,-13.1207 11.6778,0 0,-52.4426 19.7443,0 0,52.4426 11.7247,0 0,13.1207 z m 49.3827,0 -19.7444,0 0,-48.3119 c 0,-6.5199 -0.4689,-7.5323 -2.9545,-7.5323 -2.2043,0 -2.7202,0.9719 -2.7202,6.6819 l 0,49.1623 -19.7443,0 0,-38.7953 c 0,-7.4108 0.1407,-12.2299 0.469,-14.5381 0.3283,-2.3083 1.3132,-4.5356 3.0484,-6.6009 1.7352,-2.0653 4.3147,-3.7662 7.7852,-5.062 3.4705,-1.2959 7.4568,-1.9438 12.006,-1.9438 4.0802,0 7.6445,0.5264 10.6929,1.6603 3.0015,1.0934 5.4402,2.6727 7.2693,4.819 1.829,2.1058 2.9546,4.1711 3.3298,6.1959 0.3752,1.9844 0.5628,5.467 0.5628,10.4481 l 0,43.8168 z m 7.6425,0 0,-65.5633 19.7443,0 0,26.4035 5.2996,0 c 4.3147,0 7.8321,0.5265 10.5053,1.5389 2.6732,1.0124 4.5023,2.5107 5.4871,4.4141 0.9849,1.9033 1.5008,4.981 1.5008,9.1521 l 0,5.71 c 0,4.0901 -0.2345,7.1273 -0.7504,9.1116 -0.5159,1.9438 -1.5007,3.6042 -2.9546,4.981 -1.4539,1.3769 -3.6581,2.4298 -6.5189,3.1587 -2.9077,0.729 -7.0348,1.0934 -12.4281,1.0934 l -19.8851,0 z m 19.7443,-11.2174 c 5.112,0 6.2845,-0.8909 6.2845,-5.386 l 0,-5.386 c 0,-4.8595 -1.2194,-5.9529 -4.8306,-5.9529 -0.4221,0 -0.8911,0 -1.4539,0.0405 l 0,16.6844 z m 92.3928,-12.9183 0,2.8347 c 0,5.386 -0.5628,9.4761 -1.7352,12.3109 -1.1725,2.7942 -3.6581,5.224 -7.4569,7.2893 -3.7988,2.0653 -8.6294,3.0777 -14.3979,3.0777 -5.8623,0 -10.646,-1.1744 -14.351,-3.5231 -3.705,-2.3893 -5.9561,-4.9811 -6.7534,-7.8158 -0.7973,-2.8347 -1.1725,-7.3703 -1.1725,-13.6472 l 0,-19.4787 c 0,-4.4951 0.1876,-7.8968 0.5628,-10.124 0.3752,-2.2678 1.3132,-4.4141 2.814,-6.4794 1.5007,-2.0653 3.7049,-3.7662 6.6127,-5.143 2.8608,-1.4174 5.9561,-2.1058 9.2859,-2.1058 5.5809,0 9.6611,2.0248 12.3343,6.0744 l 1.8291,-4.6976 12.4281,0 0,35.1912 -23.121,0 0,-9.9621 3.9864,0 0,-7.7752 c 0,-6.115 -0.8442,-7.7348 -3.705,-7.7348 -2.6263,0 -3.2829,1.3364 -3.2829,7.2083 l 0,31.4656 c 0,6.6818 0.7035,7.4513 3.1422,7.4513 2.8139,0 3.236,-0.972 3.236,-8.4638 l 0,-5.9529 19.7443,0 z m 52.5248,24.1357 -19.7443,0 0,-48.3119 c 0,-6.5199 -0.469,-7.5323 -2.9546,-7.5323 -2.2043,0 -2.7201,0.9719 -2.7201,6.6819 l 0,49.1623 -19.7444,0 0,-38.7953 c 0,-7.4108 0.1407,-12.2299 0.469,-14.5381 0.3283,-2.3083 1.3132,-4.5356 3.0484,-6.6009 1.7353,-2.0653 4.3147,-3.7662 7.7852,-5.062 3.4705,-1.2959 7.4569,-1.9438 12.0061,-1.9438 4.0801,0 7.6444,0.5264 10.6928,1.6603 3.0016,1.0934 5.4403,2.6727 7.2693,4.819 1.8291,2.1058 2.9547,4.1711 3.3298,6.1959 0.3752,1.9844 0.5628,5.467 0.5628,10.4481 l 0,43.8168 z m 27.3869,0 -19.7443,0 0,-65.5633 19.7443,0 0,65.5633 z m 7.925,0 0,-65.5633 24.9032,0 c 4.7367,0 8.2541,0.243 10.599,0.6885 2.345,0.4454 4.3147,1.2148 5.9093,2.3487 1.5945,1.0934 2.7201,2.6728 3.3767,4.6571 0.6097,1.9843 0.938,5.9124 0.938,11.7844 l 0,22.9613 c 0,6.1959 -0.2345,10.367 -0.6567,12.5133 -0.422,2.1059 -1.5476,4.0091 -3.2828,5.7505 -1.7353,1.7413 -4.3147,2.9562 -7.6445,3.7256 -3.3767,0.7695 -9.8487,1.1339 -19.3692,1.1339 l -14.773,0 z m 19.7443,-11.2174 c 2.1573,0 3.6112,-0.2025 4.4085,-0.567 0.7972,-0.4049 1.2662,-1.0123 1.5007,-1.8628 0.2345,-0.8504 0.3283,-2.7537 0.3283,-5.7099 l 0,-25.4721 c 0,-8.7472 -0.5628,-9.5167 -6.2375,-9.5167 l 0,43.1285 z m 33.3431,11.2174 0,-65.5633 34.236,0 0,13.1208 -14.4917,0 0,14.4166 12.3343,0 0,12.4728 -12.3343,0 0,12.4324 13.1785,0 0,13.1207"
         id="path2324"
         inkscape:connector-curvature="0" /></clipPath><clipPath
       clipPathUnits="userSpaceOnUse"
       id="clipPath2330"><path
         d="m 522.681,329.8666 2.625,-5.597 -54.248,0"
         clip-rule="evenodd"
         id="path2332"
         inkscape:connector-curvature="0" /></clipPath></defs><sodipodi:namedview
     pagecolor="#ffffff"
     bordercolor="#666666"
     borderopacity="1"
     objecttolerance="10"
     gridtolerance="10"
     guidetolerance="10"
     inkscape:pageopacity="0"
     inkscape:pageshadow="2"
     inkscape:window-width="1920"
     inkscape:window-height="1058"
     id="namedview4"
     showgrid="false"
     fit-margin-top="0"
     fit-margin-left="0"
     fit-margin-right="0"
     fit-margin-bottom="0"
     inkscape:zoom="2.5457514"
     inkscape:cx="341.32992"
     inkscape:cy="25.432409"
     inkscape:window-x="0"
     inkscape:window-y="0"
     inkscape:window-maximized="1"
     inkscape:current-layer="g1988" /><g
     id="g10"
     inkscape:groupmode="layer"
     inkscape:label="IFJ_Startup_Guide_HJ1_2015"
     transform="matrix(1.25,0,0,-1.25,283.5315,77.380625)"><g
       id="g1772"><g
         id="g1978"><g
           id="g1980"
           clip-path="url(#clipPath1982)"
           transform="translate(-266.4832,0)"><g
             id="g1986"><g
               id="g1988"
               clip-path="url(#clipPath1990)"><path
                 d="m 83.7939,23.2251 6.2732,0 0,24.1362 -6.2732,0 0,-24.1362 z"
                 style="fill:#fbc707;fill-opacity:1;fill-rule:nonzero;stroke:none"
                 id="path1994"
                 inkscape:connector-curvature="0" /><path
                 d="m 103.307,42.0474 0,-4.0338 6.8819,0 0,-5.3131 -6.8819,0 0,-9.4754 -6.274,0 0,24.1362 13.8606,0 0,-5.3139"
                 style="fill:#fbc707;fill-opacity:1;fill-rule:nonzero;stroke:none"
                 id="path1996"
                 inkscape:connector-curvature="0" /><path
                 d="m 124.4659,47.3613 0,-16.2934 c 0,-5.09 -2.6566,-8.4829 -8.0029,-8.4829 -2.6889,0 -4.7691,1.3441 -6.2099,3.5529 l 3.6174,3.8099 c 0.7047,-0.961 1.6962,-2.0488 2.5287,-2.0488 1.8563,0 1.7926,2.208 1.7926,3.5528 l 0,15.9095"
                 style="fill:#fbc707;fill-opacity:1;fill-rule:nonzero;stroke:none"
                 id="path1998"
                 inkscape:connector-curvature="0" /><path
                 d="m 54.0767,54.3005 0,0.0037 c 3.8891,0.4009 7.5919,2.4141 10.0302,5.8546 l 3.8228,-2.7095 C 64.5797,52.7225 59.44,50.0167 54.0828,49.6004 l 0,0.0146 c -4.2771,-8e-4 -8.1075,-1.9122 -10.6849,-4.9272 l -3.6551,2.9346 c 3.4365,4.081 8.5823,6.6753 14.3339,6.6781"
                 style="fill:#c8c7c7;fill-opacity:1;fill-rule:nonzero;stroke:none"
                 id="path2000"
                 inkscape:connector-curvature="0" /><path
                 d="m 54.1058,55.3855 c -1.8003,0 -3.2595,1.4596 -3.2595,3.2595 0,1.7999 1.4592,3.2595 3.2595,3.2595 1.8003,0 3.2595,-1.4596 3.2595,-3.2595 0,-1.7999 -1.4592,-3.2595 -3.2595,-3.2595"
                 style="fill:#c8c7c7;fill-opacity:1;fill-rule:nonzero;stroke:none"
                 id="path2002"
                 inkscape:connector-curvature="0" /><path
                 d="m 40.4197,31.0675 -0.0012,0.0073 c 5.1733,0.9116 9.0409,4.8743 10.0839,9.7113 l 0.0885,0.3428 0.6628,0 c 9.1957,0 16.6554,-7.4242 16.718,-16.6054 l 4.0136,0 0,-1.4588 -8.1896,0 0,1.4588 0.0146,0 C 63.6939,30.5301 59.3409,35.6007 53.6221,36.7177 51.5313,31.6001 46.9512,27.6302 41.116,26.5739 l 0,-3.6959 -1.458,0 0,8.1895"
                 style="fill:#c8c7c7;fill-opacity:1;fill-rule:nonzero;stroke:none"
                 id="path2004"
                 inkscape:connector-curvature="0" /><path
                 d="m 43.6392,14.8662 c 0,-0.2268 -0.055,-0.4283 -0.1641,-0.6054 -0.1095,-0.1767 -0.2615,-0.3269 -0.4558,-0.4502 -0.1944,-0.1233 -0.4227,-0.216 -0.6858,-0.2785 -0.2627,-0.0625 -0.5459,-0.0935 -0.8498,-0.0935 -0.2122,0 -0.409,0.0137 -0.5904,0.0414 -0.181,0.0273 -0.3427,0.0608 -0.4849,0.1009 -0.1419,0.0394 -0.2611,0.0807 -0.3577,0.1234 -0.0961,0.0422 -0.1632,0.0782 -0.2008,0.108 -0.0376,0.0302 -0.0651,0.0678 -0.0832,0.1142 -0.0178,0.0459 -0.0267,0.1076 -0.0267,0.1849 0,0.0551 0.0032,0.1002 0.0097,0.1366 0.0065,0.036 0.0162,0.065 0.0295,0.0877 0.0129,0.0224 0.0291,0.0381 0.0489,0.0468 0.0194,0.0087 0.0424,0.0128 0.0687,0.0128 0.0456,0 0.1099,-0.0211 0.1931,-0.0633 0.0833,-0.0422 0.1904,-0.0886 0.3209,-0.1382 0.1305,-0.0501 0.2881,-0.0968 0.4728,-0.1403 0.1847,-0.0434 0.3976,-0.0654 0.6393,-0.0654 0.183,0 0.3503,0.0186 0.5023,0.0563 0.1515,0.0372 0.282,0.0902 0.3916,0.1589 0.1095,0.0683 0.1935,0.1523 0.2525,0.252 0.0586,0.0993 0.0881,0.2131 0.0881,0.3401 0,0.137 -0.0408,0.2541 -0.1224,0.3514 -0.0817,0.0968 -0.1895,0.1825 -0.3233,0.2557 -0.1342,0.0737 -0.2865,0.1411 -0.4583,0.2019 -0.1713,0.0613 -0.3467,0.1233 -0.5265,0.1871 -0.1794,0.0637 -0.3544,0.134 -0.5241,0.211 -0.1697,0.0774 -0.3217,0.1684 -0.4554,0.2727 -0.1342,0.1047 -0.2425,0.2276 -0.3258,0.3683 -0.0832,0.1407 -0.1248,0.3095 -0.1248,0.5065 0,0.2019 0.0481,0.3819 0.1442,0.54 0.0962,0.158 0.2304,0.2909 0.4017,0.3981 0.1714,0.1071 0.3754,0.1886 0.6122,0.2445 0.2368,0.0563 0.4926,0.0844 0.7666,0.0844 0.1406,0 0.2821,-0.0095 0.4239,-0.0281 0.1423,-0.0186 0.276,-0.0439 0.4017,-0.0749 0.1257,-0.031 0.2376,-0.0658 0.3354,-0.1047 0.0982,-0.0385 0.1625,-0.0695 0.1936,-0.0931 0.0311,-0.024 0.0517,-0.0426 0.0614,-0.0563 0.0097,-0.0136 0.0178,-0.031 0.0242,-0.0521 0.0065,-0.0215 0.0118,-0.0468 0.015,-0.077 0.0032,-0.0298 0.0048,-0.0683 0.0048,-0.1159 0,-0.0446 -0.0024,-0.0844 -0.0072,-0.1191 -0.0049,-0.0352 -0.0126,-0.0642 -0.0223,-0.0882 -0.0097,-0.0231 -0.0238,-0.0409 -0.0416,-0.0521 -0.0178,-0.0112 -0.0384,-0.017 -0.061,-0.017 -0.036,0 -0.0925,0.0174 -0.1693,0.0526 -0.0768,0.0347 -0.1706,0.074 -0.2817,0.1175 -0.1107,0.0439 -0.2424,0.0832 -0.394,0.1196 -0.1519,0.036 -0.3229,0.0542 -0.512,0.0542 -0.1766,0 -0.3301,-0.0182 -0.4607,-0.0542 -0.1305,-0.0364 -0.2384,-0.084 -0.3232,-0.1436 -0.0849,-0.06 -0.1487,-0.1312 -0.1912,-0.2131 -0.0424,-0.0824 -0.0634,-0.1697 -0.0634,-0.2619 0,-0.1345 0.0408,-0.25 0.1224,-0.3476 0.0817,-0.0969 0.1904,-0.1829 0.3257,-0.2578 0.1354,-0.0745 0.2898,-0.1432 0.4631,-0.2057 0.173,-0.0621 0.3492,-0.125 0.529,-0.1887 0.1794,-0.0633 0.356,-0.1332 0.529,-0.2094 0.1729,-0.0757 0.3273,-0.1655 0.4627,-0.2689 0.1357,-0.1035 0.2453,-0.2256 0.3285,-0.3663 0.0832,-0.1406 0.1249,-0.307 0.1249,-0.499"
                 style="fill:#231f20;fill-opacity:1;fill-rule:nonzero;stroke:none"
                 id="path2006"
                 inkscape:connector-curvature="0" /><path
                 d="m 49.3504,18.069 c 0,-0.0471 -0.0033,-0.0881 -0.0098,-0.1229 -0.0068,-0.0347 -0.0174,-0.0633 -0.0319,-0.0844 -0.015,-0.0207 -0.0327,-0.0364 -0.0537,-0.0468 -0.0215,-0.0095 -0.0453,-0.0148 -0.0712,-0.0148 l -1.7833,0 0,-4.1935 c 0,-0.0199 -0.0064,-0.0372 -0.0193,-0.0521 -0.0134,-0.0149 -0.036,-0.0265 -0.0688,-0.0356 -0.0327,-0.0087 -0.0759,-0.0162 -0.1297,-0.022 -0.0537,-0.0066 -0.1216,-0.0095 -0.2032,-0.0095 -0.0784,0 -0.1455,0.0029 -0.2009,0.0095 -0.0557,0.0058 -0.0998,0.0133 -0.1321,0.022 -0.0327,0.0091 -0.0558,0.0207 -0.0687,0.0356 -0.0134,0.0149 -0.0198,0.0322 -0.0198,0.0521 l 0,4.1935 -1.7829,0 c -0.0263,0 -0.0497,0.0053 -0.0711,0.0148 -0.021,0.0104 -0.0384,0.0261 -0.0514,0.0468 -0.0129,0.0211 -0.0238,0.0497 -0.0319,0.0844 -0.0081,0.0348 -0.0121,0.0758 -0.0121,0.1229 0,0.0476 0.004,0.0894 0.0121,0.1254 0.0081,0.0364 0.019,0.0654 0.0319,0.0881 0.013,0.0224 0.0304,0.0385 0.0514,0.0485 0.0214,0.0099 0.0448,0.0149 0.0711,0.0149 l 4.4087,0 c 0.0259,0 0.0497,-0.005 0.0712,-0.0149 0.021,-0.01 0.0387,-0.0261 0.0537,-0.0485 0.0145,-0.0227 0.0251,-0.0517 0.0319,-0.0881 0.0065,-0.036 0.0098,-0.0778 0.0098,-0.1254"
                 style="fill:#231f20;fill-opacity:1;fill-rule:nonzero;stroke:none"
                 id="path2008"
                 inkscape:connector-curvature="0" /><path
                 d="m 52.1022,17.7032 -0.0048,0 -1.0923,-2.4108 2.2044,0 -1.1073,2.4108 z m 2.7286,-3.9654 c 0.0262,-0.0551 0.04,-0.0993 0.0416,-0.1329 0.0016,-0.0335 -0.0105,-0.0591 -0.0368,-0.0765 -0.0259,-0.0174 -0.0695,-0.029 -0.1297,-0.0335 -0.0606,-0.005 -0.1415,-0.0075 -0.2425,-0.0075 -0.1014,0 -0.1822,0.0017 -0.2424,0.0054 -0.0606,0.0041 -0.1063,0.0099 -0.137,0.019 -0.0311,0.0083 -0.0542,0.0203 -0.0687,0.0352 -0.0149,0.0149 -0.0287,0.0339 -0.0416,0.0559 l -0.5439,1.1777 -2.6352,0 -0.5193,-1.1624 c -0.0101,-0.0224 -0.023,-0.0418 -0.0392,-0.0579 -0.0166,-0.0162 -0.04,-0.0298 -0.0711,-0.0414 -0.0311,-0.0112 -0.0751,-0.0195 -0.1321,-0.024 -0.0574,-0.005 -0.1318,-0.0075 -0.2231,-0.0075 -0.0946,0 -0.1721,0.0029 -0.2328,0.0095 -0.0602,0.0058 -0.1026,0.0178 -0.1273,0.0352 -0.0242,0.0178 -0.0359,0.0431 -0.0343,0.0766 0.0016,0.0335 0.0158,0.0782 0.0416,0.1324 l 2.126,4.4926 c 0.0129,0.0273 0.0303,0.0501 0.0517,0.0675 0.021,0.0173 0.0521,0.031 0.093,0.0413 0.0408,0.0096 0.0929,0.0166 0.1568,0.0199 0.0634,0.0041 0.1442,0.0058 0.2424,0.0058 0.1043,0 0.1911,-0.0017 0.2595,-0.0058 0.0687,-0.0033 0.124,-0.0103 0.1664,-0.0199 0.0425,-0.0103 0.0752,-0.0248 0.0982,-0.0434 0.0227,-0.0186 0.0408,-0.0418 0.0538,-0.0691"
                 style="fill:#231f20;fill-opacity:1;fill-rule:nonzero;stroke:none"
                 id="path2010"
                 inkscape:connector-curvature="0" /><path
                 d="m 59.4496,17.0043 c 0,0.1891 -0.0557,0.3493 -0.1668,0.48 -0.1108,0.1312 -0.2971,0.2247 -0.5581,0.2822 -0.0821,0.0174 -0.1742,0.0298 -0.2768,0.0377 -0.1031,0.007 -0.2376,0.0107 -0.4041,0.0107 l -0.7105,0 0,-1.6291 0.8228,0 c 0.2223,0 0.4142,0.0203 0.5758,0.0617 0.1617,0.0409 0.2962,0.098 0.4042,0.1717 0.1078,0.0737 0.1867,0.1601 0.2376,0.2599 0.0505,0.0993 0.0759,0.2081 0.0759,0.3252 z m 1.2685,-3.3977 c 0,-0.0199 -0.0048,-0.0372 -0.0145,-0.0521 -0.0097,-0.0149 -0.0311,-0.0274 -0.0639,-0.0377 -0.0327,-0.0095 -0.0784,-0.0174 -0.137,-0.0219 -0.059,-0.005 -0.1374,-0.0075 -0.2351,-0.0075 -0.0849,0 -0.1544,0.0025 -0.2082,0.0075 -0.0541,0.0045 -0.0973,0.0128 -0.1297,0.024 -0.0327,0.0116 -0.0582,0.0269 -0.0759,0.0471 -0.0183,0.0195 -0.0336,0.0447 -0.0465,0.0745 l -0.5831,1.1401 c -0.0687,0.1295 -0.1394,0.2486 -0.213,0.3566 -0.0736,0.1085 -0.1608,0.202 -0.2623,0.2802 -0.101,0.079 -0.2202,0.1399 -0.3576,0.1837 -0.137,0.0431 -0.3019,0.065 -0.4946,0.065 l -0.5634,0 0,-2.0595 c 0,-0.0199 -0.0072,-0.0372 -0.0222,-0.0521 -0.0145,-0.0149 -0.0375,-0.0265 -0.0683,-0.0356 -0.0311,-0.0087 -0.0735,-0.0162 -0.1272,-0.022 -0.0542,-0.0066 -0.1221,-0.0095 -0.2037,-0.0095 -0.0817,0 -0.1491,0.0029 -0.2033,0.0095 -0.0537,0.0058 -0.097,0.0133 -0.1297,0.022 -0.0327,0.0091 -0.0554,0.0207 -0.0687,0.0356 -0.0129,0.0149 -0.0194,0.0322 -0.0194,0.0521 l 0,4.4777 c 0,0.0973 0.0336,0.1651 0.1002,0.2036 0.0671,0.0385 0.1382,0.058 0.2134,0.058 l 1.3469,0 c 0.16,0 0.2933,-0.0029 0.3992,-0.0091 0.1063,-0.0067 0.2017,-0.0133 0.2865,-0.0207 0.2449,-0.0323 0.4615,-0.0836 0.6494,-0.1531 0.1875,-0.07 0.3451,-0.1585 0.4724,-0.2657 0.1277,-0.1068 0.2231,-0.2297 0.2865,-0.3679 0.0639,-0.1382 0.0958,-0.2909 0.0958,-0.458 0,-0.1618 -0.0287,-0.3071 -0.0857,-0.435 -0.0574,-0.1286 -0.1398,-0.242 -0.2473,-0.3405 -0.1079,-0.0985 -0.2368,-0.1837 -0.3871,-0.2562 -0.1503,-0.0724 -0.3185,-0.1332 -0.5048,-0.1829 0.1047,-0.0347 0.1993,-0.0794 0.2842,-0.1328 0.0848,-0.0534 0.1644,-0.1175 0.2376,-0.192 0.0735,-0.0749 0.143,-0.161 0.2085,-0.2582 0.065,-0.0972 0.1305,-0.2065 0.1955,-0.329 l 0.5686,-1.0651 c 0.0457,-0.0894 0.0748,-0.1527 0.0881,-0.1887 0.0129,-0.0364 0.0194,-0.0641 0.0194,-0.0844"
                 style="fill:#231f20;fill-opacity:1;fill-rule:nonzero;stroke:none"
                 id="path2012"
                 inkscape:connector-curvature="0" /><path
                 d="m 66.4147,18.069 c 0,-0.0471 -0.0032,-0.0881 -0.0097,-0.1229 -0.0068,-0.0347 -0.0173,-0.0633 -0.0319,-0.0844 -0.0149,-0.0207 -0.0327,-0.0364 -0.0537,-0.0468 -0.0215,-0.0095 -0.0453,-0.0148 -0.0712,-0.0148 l -1.7833,0 0,-4.1935 c 0,-0.0199 -0.0064,-0.0372 -0.0194,-0.0521 -0.0133,-0.0149 -0.0359,-0.0265 -0.0687,-0.0356 -0.0327,-0.0087 -0.0759,-0.0162 -0.1296,-0.022 -0.0538,-0.0066 -0.1217,-0.0095 -0.2033,-0.0095 -0.0784,0 -0.1455,0.0029 -0.2009,0.0095 -0.0557,0.0058 -0.0998,0.0133 -0.1321,0.022 -0.0327,0.0091 -0.0558,0.0207 -0.0687,0.0356 -0.0133,0.0149 -0.0198,0.0322 -0.0198,0.0521 l 0,4.1935 -1.7829,0 c -0.0263,0 -0.0497,0.0053 -0.0711,0.0148 -0.0211,0.0104 -0.0384,0.0261 -0.0513,0.0468 -0.013,0.0211 -0.0239,0.0497 -0.032,0.0844 -0.0081,0.0348 -0.0121,0.0758 -0.0121,0.1229 0,0.0476 0.004,0.0894 0.0121,0.1254 0.0081,0.0364 0.019,0.0654 0.032,0.0881 0.0129,0.0224 0.0302,0.0385 0.0513,0.0485 0.0214,0.0099 0.0448,0.0149 0.0711,0.0149 l 4.4087,0 c 0.0259,0 0.0497,-0.005 0.0712,-0.0149 0.021,-0.01 0.0388,-0.0261 0.0537,-0.0485 0.0146,-0.0227 0.0251,-0.0517 0.0319,-0.0881 0.0065,-0.036 0.0097,-0.0778 0.0097,-0.1254"
                 style="fill:#231f20;fill-opacity:1;fill-rule:nonzero;stroke:none"
                 id="path2014"
                 inkscape:connector-curvature="0" /><path
                 d="m 72.6989,15.2961 c 0,-0.2942 -0.0566,-0.5561 -0.1693,-0.7866 -0.1123,-0.2305 -0.2732,-0.4254 -0.4825,-0.5847 -0.2089,-0.1597 -0.4635,-0.2805 -0.7641,-0.3629 -0.3003,-0.0819 -0.6418,-0.1233 -1.0237,-0.1233 -0.3495,0 -0.6679,0.0389 -0.9552,0.1159 -0.2874,0.0773 -0.5339,0.1911 -0.7396,0.3418 -0.2056,0.151 -0.364,0.3397 -0.4752,0.5665 -0.1111,0.2263 -0.1664,0.4882 -0.1664,0.7849 l 0,3.0009 c 0,0.0203 0.0064,0.0377 0.0193,0.0526 0.013,0.0149 0.036,0.0264 0.0688,0.0356 0.0327,0.0082 0.0751,0.0161 0.1272,0.0223 0.0521,0.0058 0.1209,0.0091 0.2057,0.0091 0.0784,0 0.1455,-0.0033 0.2009,-0.0091 0.0557,-0.0062 0.099,-0.0141 0.1297,-0.0223 0.0311,-0.0092 0.0533,-0.0207 0.0662,-0.0356 0.013,-0.0149 0.0199,-0.0323 0.0199,-0.0526 l 0,-2.9227 c 0,-0.2238 0.0355,-0.4196 0.1074,-0.5863 0.072,-0.1672 0.1758,-0.3062 0.3112,-0.4167 0.1354,-0.1113 0.2986,-0.1945 0.4898,-0.2508 0.1911,-0.0562 0.4057,-0.084 0.6441,-0.084 0.2449,0 0.4631,0.0278 0.6542,0.082 0.1908,0.055 0.3524,0.1369 0.485,0.247 0.1321,0.1097 0.2331,0.2454 0.3035,0.4072 0.0703,0.1622 0.1054,0.3513 0.1054,0.5681 l 0,2.9562 c 0,0.0203 0.0065,0.0377 0.0194,0.0526 0.013,0.0149 0.036,0.0264 0.0687,0.0356 0.0327,0.0082 0.076,0.0161 0.1297,0.0223 0.0542,0.0058 0.1217,0.0091 0.2033,0.0091 0.0784,0 0.1446,-0.0033 0.1984,-0.0091 0.0542,-0.0062 0.0962,-0.0141 0.1273,-0.0223 0.0311,-0.0092 0.0541,-0.0207 0.0687,-0.0356 0.0145,-0.0149 0.0222,-0.0323 0.0222,-0.0526"
                 style="fill:#231f20;fill-opacity:1;fill-rule:nonzero;stroke:none"
                 id="path2016"
                 inkscape:connector-curvature="0" /><path
                 d="m 77.9789,16.8773 c 0,0.1965 -0.0481,0.3612 -0.1447,0.4932 -0.0961,0.132 -0.2153,0.2305 -0.3576,0.2955 -0.1418,0.0645 -0.2889,0.1059 -0.4409,0.1233 -0.1515,0.0174 -0.2994,0.0256 -0.4433,0.0256 l -0.7787,0 0,-1.9394 0.7594,0 c 0.2545,0 0.4659,0.0248 0.6344,0.0745 0.1681,0.05 0.3091,0.1191 0.4235,0.2077 0.1144,0.0881 0.2008,0.1945 0.2598,0.3178 0.0586,0.1233 0.0881,0.2569 0.0881,0.4018 z m 0.8866,0.0521 c 0,-0.2416 -0.0521,-0.4597 -0.1568,-0.6542 -0.1046,-0.1941 -0.2538,-0.36 -0.4481,-0.497 -0.1944,-0.1369 -0.4328,-0.2429 -0.7153,-0.3174 -0.2824,-0.0749 -0.6195,-0.1125 -1.0115,-0.1125 l -0.7201,0 0,-1.7417 c 0,-0.0199 -0.0073,-0.0372 -0.0222,-0.0521 -0.0146,-0.0149 -0.0376,-0.0265 -0.0683,-0.0356 -0.0311,-0.0087 -0.0735,-0.0162 -0.1273,-0.022 -0.0541,-0.0066 -0.122,-0.0095 -0.2037,-0.0095 -0.0816,0 -0.1491,0.0029 -0.2032,0.0095 -0.0537,0.0058 -0.097,0.0133 -0.1297,0.022 -0.0327,0.0091 -0.0554,0.0207 -0.0687,0.0356 -0.013,0.0149 -0.0194,0.0322 -0.0194,0.0521 l 0,4.4624 c 0,0.1002 0.0343,0.1709 0.103,0.2135 0.0683,0.0422 0.1451,0.0634 0.23,0.0634 l 1.357,0 c 0.1369,0 0.2687,-0.0042 0.3943,-0.0133 0.1257,-0.0083 0.2744,-0.0269 0.4458,-0.0559 0.1713,-0.0285 0.3459,-0.0823 0.5241,-0.1605 0.1778,-0.0786 0.3289,-0.175 0.453,-0.2901 0.1241,-0.1142 0.2198,-0.247 0.2865,-0.3976 0.0671,-0.1511 0.1006,-0.317 0.1006,-0.4991"
                 style="fill:#231f20;fill-opacity:1;fill-rule:nonzero;stroke:none"
                 id="path2018"
                 inkscape:connector-curvature="0" /><path
                 d="m 87.0302,14.8662 c 0,-0.2268 -0.0546,-0.4283 -0.1639,-0.6054 -0.1096,-0.1767 -0.2615,-0.3269 -0.456,-0.4502 -0.1941,-0.1233 -0.4225,-0.216 -0.6856,-0.2785 -0.2628,-0.0625 -0.5458,-0.0935 -0.85,-0.0935 -0.2119,0 -0.4088,0.0137 -0.5901,0.0414 -0.1812,0.0273 -0.3426,0.0608 -0.4849,0.1009 -0.142,0.0394 -0.2611,0.0807 -0.3576,0.1234 -0.0964,0.0422 -0.1634,0.0782 -0.2011,0.108 -0.0376,0.0302 -0.0649,0.0678 -0.0831,0.1142 -0.0178,0.0459 -0.0265,0.1076 -0.0265,0.1849 0,0.0551 0.0029,0.1002 0.0095,0.1366 0.0066,0.036 0.0161,0.065 0.0294,0.0877 0.0132,0.0224 0.0293,0.0381 0.0488,0.0468 0.0194,0.0087 0.0426,0.0128 0.0691,0.0128 0.0455,0 0.1097,-0.0211 0.1928,-0.0633 0.0832,-0.0422 0.1904,-0.0886 0.3211,-0.1382 0.1304,-0.0501 0.288,-0.0968 0.4726,-0.1403 0.185,-0.0434 0.3977,-0.0654 0.6393,-0.0654 0.1833,0 0.3505,0.0186 0.5024,0.0563 0.1514,0.0372 0.2822,0.0902 0.3914,0.1589 0.1097,0.0683 0.1937,0.1523 0.2529,0.252 0.0583,0.0993 0.0881,0.2131 0.0881,0.3401 0,0.137 -0.041,0.2541 -0.1225,0.3514 -0.0819,0.0968 -0.1895,0.1825 -0.3236,0.2557 -0.1341,0.0737 -0.2863,0.1411 -0.458,0.2019 -0.1714,0.0613 -0.3468,0.1233 -0.5264,0.1871 -0.1796,0.0637 -0.3546,0.134 -0.5243,0.211 -0.1696,0.0774 -0.3215,0.1684 -0.4556,0.2727 -0.1341,0.1047 -0.2425,0.2276 -0.3256,0.3683 -0.0832,0.1407 -0.1246,0.3095 -0.1246,0.5065 0,0.2019 0.048,0.3819 0.144,0.54 0.0964,0.158 0.2305,0.2909 0.4018,0.3981 0.1713,0.1071 0.3753,0.1886 0.612,0.2445 0.2371,0.0563 0.4929,0.0844 0.7668,0.0844 0.1407,0 0.2822,-0.0095 0.4237,-0.0281 0.1424,-0.0186 0.276,-0.0439 0.4018,-0.0749 0.1258,-0.031 0.2375,-0.0658 0.3356,-0.1047 0.0981,-0.0385 0.1622,-0.0695 0.1933,-0.0931 0.0314,-0.024 0.0517,-0.0426 0.0616,-0.0563 0.0095,-0.0136 0.0178,-0.031 0.024,-0.0521 0.0066,-0.0215 0.012,-0.0468 0.0149,-0.077 0.0033,-0.0298 0.005,-0.0683 0.005,-0.1159 0,-0.0446 -0.0025,-0.0844 -0.0071,-0.1191 -0.0049,-0.0352 -0.0128,-0.0642 -0.0223,-0.0882 -0.0099,-0.0231 -0.024,-0.0409 -0.0418,-0.0521 -0.0178,-0.0112 -0.0381,-0.017 -0.0608,-0.017 -0.036,0 -0.0927,0.0174 -0.1693,0.0526 -0.0769,0.0347 -0.1705,0.074 -0.2818,0.1175 -0.1109,0.0439 -0.2425,0.0832 -0.3939,0.1196 -0.1519,0.036 -0.3228,0.0542 -0.5119,0.0542 -0.1767,0 -0.3302,-0.0182 -0.461,-0.0542 -0.1303,-0.0364 -0.2383,-0.084 -0.3231,-0.1436 -0.0849,-0.06 -0.1486,-0.1312 -0.1912,-0.2131 -0.0422,-0.0824 -0.0633,-0.1697 -0.0633,-0.2619 0,-0.1345 0.0405,-0.25 0.1225,-0.3476 0.0815,-0.0969 0.1903,-0.1829 0.3256,-0.2578 0.1353,-0.0745 0.2897,-0.1432 0.4631,-0.2057 0.1729,-0.0621 0.3492,-0.125 0.5288,-0.1887 0.1796,-0.0633 0.3563,-0.1332 0.5293,-0.2094 0.1729,-0.0757 0.3273,-0.1655 0.4626,-0.2689 0.1357,-0.1035 0.2454,-0.2256 0.3285,-0.3663 0.0832,-0.1406 0.1246,-0.307 0.1246,-0.499"
                 style="fill:#918f90;fill-opacity:1;fill-rule:nonzero;stroke:none"
                 id="path2020"
                 inkscape:connector-curvature="0" /><path
                 d="m 93.6034,15.2961 c 0,-0.2942 -0.0567,-0.5561 -0.1692,-0.7866 -0.1122,-0.2305 -0.2731,-0.4254 -0.4825,-0.5847 -0.209,-0.1597 -0.4635,-0.2805 -0.7643,-0.3629 -0.3,-0.0819 -0.6414,-0.1233 -1.0233,-0.1233 -0.3497,0 -0.6683,0.0389 -0.9555,0.1159 -0.2872,0.0773 -0.5338,0.1911 -0.7395,0.3418 -0.2056,0.151 -0.3641,0.3397 -0.475,0.5665 -0.1113,0.2263 -0.1668,0.4882 -0.1668,0.7849 l 0,3.0009 c 0,0.0203 0.0067,0.0377 0.0195,0.0526 0.0128,0.0149 0.036,0.0264 0.0687,0.0356 0.0327,0.0082 0.0753,0.0161 0.1274,0.0223 0.0522,0.0058 0.1208,0.0091 0.2057,0.0091 0.0782,0 0.1452,-0.0033 0.2007,-0.0091 0.0558,-0.0062 0.0989,-0.0141 0.1299,-0.0223 0.031,-0.0092 0.0534,-0.0207 0.0662,-0.0356 0.0128,-0.0149 0.0199,-0.0323 0.0199,-0.0526 l 0,-2.9227 c 0,-0.2238 0.0356,-0.4196 0.1071,-0.5863 0.0721,-0.1672 0.1759,-0.3062 0.3112,-0.4167 0.1358,-0.1113 0.2988,-0.1945 0.49,-0.2508 0.1911,-0.0562 0.4055,-0.084 0.6442,-0.084 0.2446,0 0.4631,0.0278 0.6543,0.082 0.1907,0.055 0.3521,0.1369 0.4849,0.247 0.132,0.1097 0.233,0.2454 0.3034,0.4072 0.0703,0.1622 0.1055,0.3513 0.1055,0.5681 l 0,2.9562 c 0,0.0203 0.0062,0.0377 0.0194,0.0526 0.0129,0.0149 0.036,0.0264 0.0687,0.0356 0.0327,0.0082 0.0757,0.0161 0.1295,0.0223 0.0542,0.0058 0.1217,0.0091 0.2032,0.0091 0.0786,0 0.1448,-0.0033 0.1986,-0.0091 0.0542,-0.0062 0.096,-0.0141 0.1271,-0.0223 0.0314,-0.0092 0.0542,-0.0207 0.0691,-0.0356 0.0145,-0.0149 0.0219,-0.0323 0.0219,-0.0526"
                 style="fill:#918f90;fill-opacity:1;fill-rule:nonzero;stroke:none"
                 id="path2022"
                 inkscape:connector-curvature="0" /><path
                 d="m 98.8835,16.8773 c 0,0.1965 -0.048,0.3612 -0.1448,0.4932 -0.096,0.132 -0.2152,0.2305 -0.3576,0.2955 -0.1419,0.0645 -0.2888,0.1059 -0.4407,0.1233 -0.1518,0.0174 -0.2995,0.0256 -0.4435,0.0256 l -0.7784,0 0,-1.9394 0.7593,0 c 0.2545,0 0.4655,0.0248 0.6344,0.0745 0.168,0.05 0.3091,0.1191 0.4233,0.2077 0.1146,0.0881 0.2011,0.1945 0.2599,0.3178 0.0587,0.1233 0.0881,0.2569 0.0881,0.4018 z m 0.8868,0.0521 c 0,-0.2416 -0.0522,-0.4597 -0.1569,-0.6542 -0.1047,-0.1941 -0.254,-0.36 -0.4481,-0.497 -0.1945,-0.1369 -0.4328,-0.2429 -0.7155,-0.3174 -0.2822,-0.0749 -0.6194,-0.1125 -1.0113,-0.1125 l -0.72,0 0,-1.7417 c 0,-0.0199 -0.0074,-0.0372 -0.0223,-0.0521 -0.0145,-0.0149 -0.0377,-0.0265 -0.0683,-0.0356 -0.0311,-0.0087 -0.0737,-0.0162 -0.1275,-0.022 -0.0542,-0.0066 -0.122,-0.0095 -0.2036,-0.0095 -0.0815,0 -0.1489,0.0029 -0.2031,0.0095 -0.0538,0.0058 -0.0973,0.0133 -0.13,0.022 -0.0327,0.0091 -0.055,0.0207 -0.0687,0.0356 -0.0128,0.0149 -0.0194,0.0322 -0.0194,0.0521 l 0,4.4624 c 0,0.1002 0.0343,0.1709 0.103,0.2135 0.0683,0.0422 0.1453,0.0634 0.2301,0.0634 l 1.3568,0 c 0.137,0 0.269,-0.0042 0.3948,-0.0133 0.1254,-0.0083 0.2744,-0.0269 0.4457,-0.0559 0.1713,-0.0285 0.3459,-0.0823 0.5238,-0.1605 0.178,-0.0786 0.329,-0.175 0.4531,-0.2901 0.1242,-0.1142 0.2198,-0.247 0.2864,-0.3976 0.0675,-0.1511 0.101,-0.317 0.101,-0.4991"
                 style="fill:#918f90;fill-opacity:1;fill-rule:nonzero;stroke:none"
                 id="path2024"
                 inkscape:connector-curvature="0" /><path
                 d="m 104.668,16.8773 c 0,0.1965 -0.048,0.3612 -0.1444,0.4932 -0.0964,0.132 -0.2156,0.2305 -0.3575,0.2955 -0.142,0.0645 -0.2893,0.1059 -0.4411,0.1233 -0.1515,0.0174 -0.2992,0.0256 -0.4432,0.0256 l -0.7788,0 0,-1.9394 0.7593,0 c 0.2545,0 0.466,0.0248 0.6344,0.0745 0.168,0.05 0.3091,0.1191 0.4237,0.2077 0.1142,0.0881 0.2007,0.1945 0.2599,0.3178 0.0583,0.1233 0.0877,0.2569 0.0877,0.4018 z m 0.8868,0.0521 c 0,-0.2416 -0.0522,-0.4597 -0.1569,-0.6542 -0.1046,-0.1941 -0.2536,-0.36 -0.4481,-0.497 -0.1945,-0.1369 -0.4328,-0.2429 -0.715,-0.3174 -0.2827,-0.0749 -0.6195,-0.1125 -1.0118,-0.1125 l -0.72,0 0,-1.7417 c 0,-0.0199 -0.007,-0.0372 -0.0223,-0.0521 -0.0145,-0.0149 -0.0373,-0.0265 -0.0683,-0.0356 -0.0311,-0.0087 -0.0733,-0.0162 -0.1271,-0.022 -0.0542,-0.0066 -0.122,-0.0095 -0.204,-0.0095 -0.0815,0 -0.1489,0.0029 -0.2031,0.0095 -0.0538,0.0058 -0.0969,0.0133 -0.1296,0.022 -0.0326,0.0091 -0.0554,0.0207 -0.0686,0.0356 -0.0129,0.0149 -0.0195,0.0322 -0.0195,0.0521 l 0,4.4624 c 0,0.1002 0.0344,0.1709 0.103,0.2135 0.0683,0.0422 0.1453,0.0634 0.2301,0.0634 l 1.3569,0 c 0.1369,0 0.2685,-0.0042 0.3943,-0.0133 0.1258,-0.0083 0.2744,-0.0269 0.4457,-0.0559 0.1713,-0.0285 0.3459,-0.0823 0.5243,-0.1605 0.1775,-0.0786 0.3289,-0.175 0.4531,-0.2901 0.1237,-0.1142 0.2197,-0.247 0.2863,-0.3976 0.0671,-0.1511 0.1006,-0.317 0.1006,-0.4991"
                 style="fill:#918f90;fill-opacity:1;fill-rule:nonzero;stroke:none"
                 id="path2026"
                 inkscape:connector-curvature="0" /><path
                 d="m 111.8632,15.9392 c 0,0.2739 -0.0319,0.5284 -0.0952,0.7643 -0.0642,0.2354 -0.1697,0.4394 -0.3182,0.6128 -0.1482,0.173 -0.3468,0.3083 -0.5942,0.4055 -0.2479,0.0973 -0.5545,0.1457 -0.9199,0.1457 -0.3654,0 -0.672,-0.0526 -0.9199,-0.1568 -0.2479,-0.1047 -0.4494,-0.2446 -0.6041,-0.4188 -0.1552,-0.1742 -0.2657,-0.3782 -0.3327,-0.6108 -0.0667,-0.2333 -0.1006,-0.4779 -0.1006,-0.7345 0,-0.2842 0.0315,-0.5458 0.0931,-0.7849 0.0621,-0.2392 0.1664,-0.4453 0.3133,-0.6187 0.1464,-0.1729 0.3434,-0.3074 0.5896,-0.4038 0.2458,-0.0956 0.5553,-0.1436 0.9269,-0.1436 0.3687,0 0.6787,0.0525 0.9294,0.1572 0.2512,0.1043 0.4536,0.2458 0.6071,0.4237 0.1531,0.1784 0.2623,0.3849 0.3277,0.6187 0.065,0.2342 0.0977,0.4821 0.0977,0.744 z m 0.8913,0.0447 c 0,-0.3911 -0.06,-0.744 -0.1808,-1.0577 -0.1209,-0.3141 -0.3017,-0.5814 -0.5417,-0.8019 -0.24,-0.2202 -0.5408,-0.3898 -0.9033,-0.5078 -0.3625,-0.1183 -0.7858,-0.1779 -1.2692,-0.1779 -0.4767,0 -0.8888,0.0542 -1.2368,0.163 -0.3476,0.108 -0.6352,0.2657 -0.862,0.4726 -0.2271,0.2065 -0.396,0.463 -0.5069,0.7697 -0.1113,0.3066 -0.1667,0.6591 -0.1667,1.0576 0,0.3816 0.0608,0.7275 0.1816,1.0391 0.1205,0.3116 0.3017,0.576 0.5434,0.7945 0.2416,0.2176 0.5441,0.3856 0.9066,0.5044 0.3625,0.1184 0.785,0.1775 1.2683,0.1775 0.4672,0 0.8735,-0.0538 1.2199,-0.1605 0.3459,-0.1072 0.6339,-0.2636 0.8644,-0.4693 0.2305,-0.2056 0.4018,-0.4597 0.5144,-0.7626 0.1129,-0.3025 0.1688,-0.6493 0.1688,-1.0407"
                 style="fill:#918f90;fill-opacity:1;fill-rule:nonzero;stroke:none"
                 id="path2028"
                 inkscape:connector-curvature="0" /><path
                 d="m 117.6481,17.0043 c 0,0.1891 -0.0559,0.3493 -0.1672,0.48 -0.1105,0.1312 -0.2967,0.2247 -0.5578,0.2822 -0.0823,0.0174 -0.1742,0.0298 -0.2768,0.0377 -0.1031,0.007 -0.2375,0.0107 -0.4043,0.0107 l -0.7105,0 0,-1.6291 0.823,0 c 0.2223,0 0.4143,0.0203 0.5756,0.0617 0.1618,0.0409 0.2963,0.098 0.4043,0.1717 0.108,0.0737 0.1866,0.1601 0.2375,0.2599 0.0505,0.0993 0.0762,0.2081 0.0762,0.3252 z m 1.2683,-3.3977 c 0,-0.0199 -0.005,-0.0372 -0.0145,-0.0521 -0.01,-0.0149 -0.031,-0.0274 -0.0637,-0.0377 -0.0327,-0.0095 -0.0786,-0.0174 -0.137,-0.0219 -0.0592,-0.005 -0.1374,-0.0075 -0.2354,-0.0075 -0.0849,0 -0.1544,0.0025 -0.2082,0.0075 -0.0542,0.0045 -0.0972,0.0128 -0.1295,0.024 -0.0327,0.0116 -0.0584,0.0269 -0.0761,0.0471 -0.0183,0.0195 -0.0336,0.0447 -0.0464,0.0745 l -0.583,1.1401 c -0.0687,0.1295 -0.1395,0.2486 -0.2131,0.3566 -0.0737,0.1085 -0.161,0.202 -0.2624,0.2802 -0.101,0.079 -0.2201,0.1399 -0.3575,0.1837 -0.137,0.0431 -0.3017,0.065 -0.4945,0.065 l -0.5636,0 0,-2.0595 c 0,-0.0199 -0.007,-0.0372 -0.0219,-0.0521 -0.0145,-0.0149 -0.0377,-0.0265 -0.0683,-0.0356 -0.0315,-0.0087 -0.0737,-0.0162 -0.1275,-0.022 -0.0542,-0.0066 -0.122,-0.0095 -0.2035,-0.0095 -0.0816,0 -0.1494,0.0029 -0.2032,0.0095 -0.0538,0.0058 -0.0973,0.0133 -0.13,0.022 -0.0327,0.0091 -0.0554,0.0207 -0.0686,0.0356 -0.0129,0.0149 -0.0195,0.0322 -0.0195,0.0521 l 0,4.4777 c 0,0.0973 0.0335,0.1651 0.1001,0.2036 0.0675,0.0385 0.1383,0.058 0.2136,0.058 l 1.3469,0 c 0.1601,0 0.2934,-0.0029 0.3993,-0.0091 0.1063,-0.0067 0.2015,-0.0133 0.2863,-0.0207 0.245,-0.0323 0.4614,-0.0836 0.6497,-0.1531 0.1875,-0.07 0.3451,-0.1585 0.4722,-0.2657 0.1278,-0.1068 0.223,-0.2297 0.2867,-0.3679 0.0638,-0.1382 0.0956,-0.2909 0.0956,-0.458 0,-0.1618 -0.0285,-0.3071 -0.0856,-0.435 -0.0576,-0.1286 -0.1399,-0.242 -0.2475,-0.3405 -0.1076,-0.0985 -0.2367,-0.1837 -0.3869,-0.2562 -0.1506,-0.0724 -0.3186,-0.1332 -0.5048,-0.1829 0.1047,-0.0347 0.199,-0.0794 0.2842,-0.1328 0.0849,-0.0534 0.1643,-0.1175 0.2376,-0.192 0.0732,-0.0749 0.1427,-0.161 0.2085,-0.2582 0.065,-0.0972 0.1304,-0.2065 0.1953,-0.329 l 0.5686,-1.0651 c 0.0459,-0.0894 0.0749,-0.1527 0.0881,-0.1887 0.0129,-0.0364 0.0195,-0.0641 0.0195,-0.0844"
                 style="fill:#918f90;fill-opacity:1;fill-rule:nonzero;stroke:none"
                 id="path2030"
                 inkscape:connector-curvature="0" /><path
                 d="m 124.6132,18.069 c 0,-0.0471 -0.003,-0.0881 -0.01,-0.1229 -0.007,-0.0347 -0.0173,-0.0633 -0.0318,-0.0844 -0.0149,-0.0207 -0.0327,-0.0364 -0.0538,-0.0468 -0.0215,-0.0095 -0.0451,-0.0148 -0.0712,-0.0148 l -1.7831,0 0,-4.1935 c 0,-0.0199 -0.007,-0.0372 -0.0194,-0.0521 -0.0132,-0.0149 -0.036,-0.0265 -0.0687,-0.0356 -0.0327,-0.0087 -0.0761,-0.0162 -0.1299,-0.022 -0.0534,-0.0066 -0.1217,-0.0095 -0.2032,-0.0095 -0.0782,0 -0.1453,0.0029 -0.2007,0.0095 -0.0559,0.0058 -0.0997,0.0133 -0.132,0.022 -0.0331,0.0091 -0.0559,0.0207 -0.0691,0.0356 -0.0132,0.0149 -0.0195,0.0322 -0.0195,0.0521 l 0,4.1935 -1.783,0 c -0.0261,0 -0.0497,0.0053 -0.0712,0.0148 -0.0211,0.0104 -0.0385,0.0261 -0.0513,0.0468 -0.0128,0.0211 -0.0236,0.0497 -0.0319,0.0844 -0.008,0.0348 -0.012,0.0758 -0.012,0.1229 0,0.0476 0.004,0.0894 0.012,0.1254 0.008,0.0364 0.0191,0.0654 0.0319,0.0881 0.0128,0.0224 0.0302,0.0385 0.0513,0.0485 0.0215,0.0099 0.0451,0.0149 0.0712,0.0149 l 4.4086,0 c 0.0261,0 0.0497,-0.005 0.0712,-0.0149 0.0211,-0.01 0.0389,-0.0261 0.0538,-0.0485 0.0145,-0.0227 0.0252,-0.0517 0.0318,-0.0881 0.007,-0.036 0.01,-0.0778 0.01,-0.1254"
                 style="fill:#918f90;fill-opacity:1;fill-rule:nonzero;stroke:none"
                 id="path2032"
                 inkscape:connector-curvature="0" /></g></g></g></g></g></g></svg>